<svg width="1415" height="719" viewBox="0 0 1415 719" fill="none" xmlns="http://www.w3.org/2000/svg">
<rect x="45.0009" y="20" width="1332" height="677" fill="#FFCB77"/>
<g clip-path="url(#clip0_0_1)">
<path d="M45.2603 685.25L45.2603 32.75" stroke="#FE6D73" stroke-width="3.84181" stroke-linecap="round" stroke-dasharray="13.45 10.56"/>
<path d="M72.395 685.25L45.2622 672.2" stroke="#FE6D73" stroke-width="3.84181" stroke-linecap="round" stroke-dasharray="10.56 8.64"/>
<path d="M45.2622 672.199L72.395 659.149" stroke="#FE6D73" stroke-width="3.84181" stroke-linecap="round" stroke-dasharray="10.56 8.64"/>
<path d="M72.395 659.149L45.2622 646.099" stroke="#FE6D73" stroke-width="3.84181" stroke-linecap="round" stroke-dasharray="10.56 8.64"/>
<path d="M45.2622 646.101L72.395 633.051" stroke="#FE6D73" stroke-width="3.84181" stroke-linecap="round" stroke-dasharray="10.56 8.64"/>
<path d="M72.395 633.051L45.2622 620.001" stroke="#FE6D73" stroke-width="3.84181" stroke-linecap="round" stroke-dasharray="10.56 8.64"/>
<path d="M45.2622 620L72.395 606.95" stroke="#FE6D73" stroke-width="3.84181" stroke-linecap="round" stroke-dasharray="10.56 8.64"/>
<path d="M72.395 606.949L45.2622 593.899" stroke="#FE6D73" stroke-width="3.84181" stroke-linecap="round" stroke-dasharray="10.56 8.64"/>
<path d="M45.2622 593.899L72.395 580.849" stroke="#FE6D73" stroke-width="3.84181" stroke-linecap="round" stroke-dasharray="10.56 8.64"/>
<path d="M72.395 580.851L45.2622 567.801" stroke="#FE6D73" stroke-width="3.84181" stroke-linecap="round" stroke-dasharray="10.56 8.64"/>
<path d="M45.2622 567.801L72.395 554.751" stroke="#FE6D73" stroke-width="3.84181" stroke-linecap="round" stroke-dasharray="10.56 8.64"/>
<path d="M72.395 554.75L45.2622 541.7" stroke="#FE6D73" stroke-width="3.84181" stroke-linecap="round" stroke-dasharray="10.56 8.64"/>
<path d="M45.2622 541.699L72.395 528.649" stroke="#FE6D73" stroke-width="3.84181" stroke-linecap="round" stroke-dasharray="10.56 8.64"/>
<path d="M72.395 528.649L45.2622 515.599" stroke="#FE6D73" stroke-width="3.84181" stroke-linecap="round" stroke-dasharray="10.56 8.64"/>
<path d="M45.2622 515.601L72.395 502.551" stroke="#FE6D73" stroke-width="3.84181" stroke-linecap="round" stroke-dasharray="10.56 8.64"/>
<path d="M72.395 502.551L45.2622 489.501" stroke="#FE6D73" stroke-width="3.84181" stroke-linecap="round" stroke-dasharray="10.56 8.64"/>
<path d="M45.2622 489.5L72.395 476.45" stroke="#FE6D73" stroke-width="3.84181" stroke-linecap="round" stroke-dasharray="10.56 8.64"/>
<path d="M72.395 476.449L45.2622 463.399" stroke="#FE6D73" stroke-width="3.84181" stroke-linecap="round" stroke-dasharray="10.56 8.64"/>
<path d="M45.2622 463.399L72.395 450.349" stroke="#FE6D73" stroke-width="3.84181" stroke-linecap="round" stroke-dasharray="10.56 8.64"/>
<path d="M72.395 450.351L45.2622 437.301" stroke="#FE6D73" stroke-width="3.84181" stroke-linecap="round" stroke-dasharray="10.56 8.64"/>
<path d="M45.2622 437.301L72.395 424.251" stroke="#FE6D73" stroke-width="3.84181" stroke-linecap="round" stroke-dasharray="10.56 8.64"/>
<path d="M72.395 424.25L45.2622 411.2" stroke="#FE6D73" stroke-width="3.84181" stroke-linecap="round" stroke-dasharray="10.56 8.64"/>
<path d="M45.2622 411.199L72.395 398.149" stroke="#FE6D73" stroke-width="3.84181" stroke-linecap="round" stroke-dasharray="10.56 8.64"/>
<path d="M72.395 398.149L45.2622 385.099" stroke="#FE6D73" stroke-width="3.84181" stroke-linecap="round" stroke-dasharray="10.56 8.64"/>
<path d="M45.2622 385.101L72.395 372.051" stroke="#FE6D73" stroke-width="3.84181" stroke-linecap="round" stroke-dasharray="10.56 8.64"/>
<path d="M72.395 372.051L45.2622 359.001" stroke="#FE6D73" stroke-width="3.84181" stroke-linecap="round" stroke-dasharray="10.56 8.64"/>
<path d="M45.2622 359L72.395 345.95" stroke="#FE6D73" stroke-width="3.84181" stroke-linecap="round" stroke-dasharray="10.56 8.64"/>
<path d="M72.395 345.949L45.2622 332.899" stroke="#FE6D73" stroke-width="3.84181" stroke-linecap="round" stroke-dasharray="10.56 8.64"/>
<path d="M45.2622 332.899L72.395 319.849" stroke="#FE6D73" stroke-width="3.84181" stroke-linecap="round" stroke-dasharray="10.56 8.64"/>
<path d="M72.395 319.851L45.2622 306.801" stroke="#FE6D73" stroke-width="3.84181" stroke-linecap="round" stroke-dasharray="10.56 8.64"/>
<path d="M45.2622 306.801L72.395 293.751" stroke="#FE6D73" stroke-width="3.84181" stroke-linecap="round" stroke-dasharray="10.56 8.64"/>
<path d="M72.395 293.75L45.2622 280.7" stroke="#FE6D73" stroke-width="3.84181" stroke-linecap="round" stroke-dasharray="10.56 8.64"/>
<path d="M45.2622 280.699L72.395 267.649" stroke="#FE6D73" stroke-width="3.84181" stroke-linecap="round" stroke-dasharray="10.56 8.64"/>
<path d="M72.395 267.649L45.2622 254.599" stroke="#FE6D73" stroke-width="3.84181" stroke-linecap="round" stroke-dasharray="10.56 8.64"/>
<path d="M45.2622 254.601L72.395 241.551" stroke="#FE6D73" stroke-width="3.84181" stroke-linecap="round" stroke-dasharray="10.56 8.64"/>
<path d="M72.395 241.551L45.2622 228.501" stroke="#FE6D73" stroke-width="3.84181" stroke-linecap="round" stroke-dasharray="10.56 8.64"/>
<path d="M45.2622 228.5L72.395 215.45" stroke="#FE6D73" stroke-width="3.84181" stroke-linecap="round" stroke-dasharray="10.56 8.64"/>
<path d="M72.1337 209.201L45.001 196.151" stroke="#FE6D73" stroke-width="3.84181" stroke-linecap="round" stroke-dasharray="10.56 8.64"/>
<path d="M72.1337 183.102L45.001 170.052" stroke="#FE6D73" stroke-width="3.84181" stroke-linecap="round" stroke-dasharray="10.56 8.64"/>
<path d="M45.001 170.051L72.1337 157.001" stroke="#FE6D73" stroke-width="3.84181" stroke-linecap="round" stroke-dasharray="10.56 8.64"/>
<path d="M45.2622 98L72.395 84.95" stroke="#FE6D73" stroke-width="3.84181" stroke-linecap="round" stroke-dasharray="10.56 8.64"/>
<path d="M72.395 84.9487L45.2622 71.8987" stroke="#FE6D73" stroke-width="3.84181" stroke-linecap="round" stroke-dasharray="10.56 8.64"/>
<path d="M45.2622 71.8994L72.395 58.8494" stroke="#FE6D73" stroke-width="3.84181" stroke-linecap="round" stroke-dasharray="10.56 8.64"/>
<path d="M72.395 58.8506L45.2622 45.8006" stroke="#FE6D73" stroke-width="3.84181" stroke-linecap="round" stroke-dasharray="10.56 8.64"/>
<path d="M45.2622 45.8013L72.395 32.7513" stroke="#FE6D73" stroke-width="3.84181" stroke-linecap="round" stroke-dasharray="10.56 8.64"/>
</g>
<path d="M1368.88 696.424L45.1259 696.424" stroke="#FE6D73" stroke-width="3.84181" stroke-linecap="round" stroke-dasharray="13.45 10.56"/>
<path d="M1368.88 669.29L1342.4 696.422" stroke="#FE6D73" stroke-width="3.84181" stroke-linecap="round" stroke-dasharray="10.56 8.64"/>
<path d="M1342.4 696.422L1315.92 669.29" stroke="#FE6D73" stroke-width="3.84181" stroke-linecap="round" stroke-dasharray="10.56 8.64"/>
<path d="M1315.92 669.29L1289.45 696.422" stroke="#FE6D73" stroke-width="3.84181" stroke-linecap="round" stroke-dasharray="10.56 8.64"/>
<path d="M1289.45 696.422L1262.98 669.29" stroke="#FE6D73" stroke-width="3.84181" stroke-linecap="round" stroke-dasharray="10.56 8.64"/>
<path d="M1262.98 669.29L1236.5 696.422" stroke="#FE6D73" stroke-width="3.84181" stroke-linecap="round" stroke-dasharray="10.56 8.64"/>
<path d="M1236.5 696.422L1210.03 669.29" stroke="#FE6D73" stroke-width="3.84181" stroke-linecap="round" stroke-dasharray="10.56 8.64"/>
<path d="M1210.02 669.29L1183.55 696.422" stroke="#FE6D73" stroke-width="3.84181" stroke-linecap="round" stroke-dasharray="10.56 8.64"/>
<path d="M1183.55 696.422L1157.07 669.29" stroke="#FE6D73" stroke-width="3.84181" stroke-linecap="round" stroke-dasharray="10.56 8.64"/>
<path d="M1157.08 669.29L1130.6 696.422" stroke="#FE6D73" stroke-width="3.84181" stroke-linecap="round" stroke-dasharray="10.56 8.64"/>
<path d="M1130.6 696.422L1104.13 669.29" stroke="#FE6D73" stroke-width="3.84181" stroke-linecap="round" stroke-dasharray="10.56 8.64"/>
<path d="M1104.13 669.29L1077.65 696.422" stroke="#FE6D73" stroke-width="3.84181" stroke-linecap="round" stroke-dasharray="10.56 8.64"/>
<path d="M1077.65 696.422L1051.17 669.29" stroke="#FE6D73" stroke-width="3.84181" stroke-linecap="round" stroke-dasharray="10.56 8.64"/>
<path d="M1051.17 669.29L1024.7 696.422" stroke="#FE6D73" stroke-width="3.84181" stroke-linecap="round" stroke-dasharray="10.56 8.64"/>
<path d="M1024.7 696.422L998.227 669.29" stroke="#FE6D73" stroke-width="3.84181" stroke-linecap="round" stroke-dasharray="10.56 8.64"/>
<path d="M998.229 669.29L971.754 696.422" stroke="#FE6D73" stroke-width="3.84181" stroke-linecap="round" stroke-dasharray="10.56 8.64"/>
<path d="M971.751 696.422L945.276 669.29" stroke="#FE6D73" stroke-width="3.84181" stroke-linecap="round" stroke-dasharray="10.56 8.64"/>
<path d="M945.273 669.29L918.798 696.422" stroke="#FE6D73" stroke-width="3.84181" stroke-linecap="round" stroke-dasharray="10.56 8.64"/>
<path d="M918.8 696.422L892.325 669.29" stroke="#FE6D73" stroke-width="3.84181" stroke-linecap="round" stroke-dasharray="10.56 8.64"/>
<path d="M892.327 669.29L865.852 696.422" stroke="#FE6D73" stroke-width="3.84181" stroke-linecap="round" stroke-dasharray="10.56 8.64"/>
<path d="M865.853 696.422L839.378 669.29" stroke="#FE6D73" stroke-width="3.84181" stroke-linecap="round" stroke-dasharray="10.56 8.64"/>
<path d="M839.376 669.29L812.901 696.422" stroke="#FE6D73" stroke-width="3.84181" stroke-linecap="round" stroke-dasharray="10.56 8.64"/>
<path d="M812.898 696.422L786.423 669.29" stroke="#FE6D73" stroke-width="3.84181" stroke-linecap="round" stroke-dasharray="10.56 8.64"/>
<path d="M786.425 669.29L759.95 696.422" stroke="#FE6D73" stroke-width="3.84181" stroke-linecap="round" stroke-dasharray="10.56 8.64"/>
<path d="M759.952 696.422L733.477 669.29" stroke="#FE6D73" stroke-width="3.84181" stroke-linecap="round" stroke-dasharray="10.56 8.64"/>
<path d="M733.478 669.29L707.003 696.422" stroke="#FE6D73" stroke-width="3.84181" stroke-linecap="round" stroke-dasharray="10.56 8.64"/>
<path d="M707.001 696.422L680.526 669.29" stroke="#FE6D73" stroke-width="3.84181" stroke-linecap="round" stroke-dasharray="10.56 8.64"/>
<path d="M680.523 669.29L654.048 696.422" stroke="#FE6D73" stroke-width="3.84181" stroke-linecap="round" stroke-dasharray="10.56 8.64"/>
<path d="M654.05 696.422L627.575 669.29" stroke="#FE6D73" stroke-width="3.84181" stroke-linecap="round" stroke-dasharray="10.56 8.64"/>
<path d="M627.577 669.29L601.102 696.422" stroke="#FE6D73" stroke-width="3.84181" stroke-linecap="round" stroke-dasharray="10.56 8.64"/>
<path d="M601.103 696.422L574.628 669.29" stroke="#FE6D73" stroke-width="3.84181" stroke-linecap="round" stroke-dasharray="10.56 8.64"/>
<path d="M574.626 669.29L548.151 696.422" stroke="#FE6D73" stroke-width="3.84181" stroke-linecap="round" stroke-dasharray="10.56 8.64"/>
<path d="M548.148 696.422L521.673 669.29" stroke="#FE6D73" stroke-width="3.84181" stroke-linecap="round" stroke-dasharray="10.56 8.64"/>
<path d="M521.675 669.29L495.2 696.422" stroke="#FE6D73" stroke-width="3.84181" stroke-linecap="round" stroke-dasharray="10.56 8.64"/>
<path d="M495.202 696.422L468.727 669.29" stroke="#FE6D73" stroke-width="3.84181" stroke-linecap="round" stroke-dasharray="10.56 8.64"/>
<path d="M468.728 669.29L442.253 696.422" stroke="#FE6D73" stroke-width="3.84181" stroke-linecap="round" stroke-dasharray="10.56 8.64"/>
<path d="M442.251 696.422L415.776 669.29" stroke="#FE6D73" stroke-width="3.84181" stroke-linecap="round" stroke-dasharray="10.56 8.64"/>
<path d="M415.773 669.29L389.298 696.422" stroke="#FE6D73" stroke-width="3.84181" stroke-linecap="round" stroke-dasharray="10.56 8.64"/>
<path d="M389.3 696.422L362.825 669.29" stroke="#FE6D73" stroke-width="3.84181" stroke-linecap="round" stroke-dasharray="10.56 8.64"/>
<path d="M362.827 669.29L336.352 696.422" stroke="#FE6D73" stroke-width="3.84181" stroke-linecap="round" stroke-dasharray="10.56 8.64"/>
<path d="M336.354 696.422L309.879 669.29" stroke="#FE6D73" stroke-width="3.84181" stroke-linecap="round" stroke-dasharray="10.56 8.64"/>
<path d="M309.876 669.29L283.401 696.422" stroke="#FE6D73" stroke-width="3.84181" stroke-linecap="round" stroke-dasharray="10.56 8.64"/>
<path d="M283.398 696.422L256.923 669.29" stroke="#FE6D73" stroke-width="3.84181" stroke-linecap="round" stroke-dasharray="10.56 8.64"/>
<path d="M256.925 669.29L230.45 696.422" stroke="#FE6D73" stroke-width="3.84181" stroke-linecap="round" stroke-dasharray="10.56 8.64"/>
<path d="M230.452 696.422L203.977 669.29" stroke="#FE6D73" stroke-width="3.84181" stroke-linecap="round" stroke-dasharray="10.56 8.64"/>
<path d="M203.979 669.29L177.504 696.422" stroke="#FE6D73" stroke-width="3.84181" stroke-linecap="round" stroke-dasharray="10.56 8.64"/>
<path d="M177.501 696.422L151.026 669.29" stroke="#FE6D73" stroke-width="3.84181" stroke-linecap="round" stroke-dasharray="10.56 8.64"/>
<path d="M151.023 669.29L124.548 696.422" stroke="#FE6D73" stroke-width="3.84181" stroke-linecap="round" stroke-dasharray="10.56 8.64"/>
<path d="M124.55 696.422L98.075 669.29" stroke="#FE6D73" stroke-width="3.84181" stroke-linecap="round" stroke-dasharray="10.56 8.64"/>
<path d="M98.0769 669.29L71.6019 696.422" stroke="#FE6D73" stroke-width="3.84181" stroke-linecap="round" stroke-dasharray="10.56 8.64"/>
<path d="M71.6037 696.422L45.1287 669.29" stroke="#FE6D73" stroke-width="3.84181" stroke-linecap="round" stroke-dasharray="10.56 8.64"/>
<path d="M44.2188 21.8521L1370.78 21.8519" stroke="#FE6D73" stroke-width="3.84181" stroke-linecap="round" stroke-dasharray="13.45 10.56"/>
<path d="M44.2188 48.9868L70.75 21.854" stroke="#FE6D73" stroke-width="3.84181" stroke-linecap="round" stroke-dasharray="10.56 8.64"/>
<path d="M70.7526 21.854L97.2839 48.9868" stroke="#FE6D73" stroke-width="3.84181" stroke-linecap="round" stroke-dasharray="10.56 8.64"/>
<path d="M97.2821 48.9868L123.813 21.854" stroke="#FE6D73" stroke-width="3.84181" stroke-linecap="round" stroke-dasharray="10.56 8.64"/>
<path d="M123.812 21.854L150.343 48.9868" stroke="#FE6D73" stroke-width="3.84181" stroke-linecap="round" stroke-dasharray="10.56 8.64"/>
<path d="M150.341 48.9868L176.872 21.854" stroke="#FE6D73" stroke-width="3.84181" stroke-linecap="round" stroke-dasharray="10.56 8.64"/>
<path d="M176.875 21.854L203.406 48.9868" stroke="#FE6D73" stroke-width="3.84181" stroke-linecap="round" stroke-dasharray="10.56 8.64"/>
<path d="M203.409 48.9868L229.94 21.854" stroke="#FE6D73" stroke-width="3.84181" stroke-linecap="round" stroke-dasharray="10.56 8.64"/>
<path d="M229.938 21.854L256.47 48.9868" stroke="#FE6D73" stroke-width="3.84181" stroke-linecap="round" stroke-dasharray="10.56 8.64"/>
<path d="M256.468 48.9868L282.999 21.854" stroke="#FE6D73" stroke-width="3.84181" stroke-linecap="round" stroke-dasharray="10.56 8.64"/>
<path d="M282.997 21.854L309.529 48.9868" stroke="#FE6D73" stroke-width="3.84181" stroke-linecap="round" stroke-dasharray="10.56 8.64"/>
<path d="M309.531 48.9868L336.063 21.854" stroke="#FE6D73" stroke-width="3.84181" stroke-linecap="round" stroke-dasharray="10.56 8.64"/>
<path d="M336.065 21.854L362.596 48.9868" stroke="#FE6D73" stroke-width="3.84181" stroke-linecap="round" stroke-dasharray="10.56 8.64"/>
<path d="M362.595 48.9868L389.126 21.854" stroke="#FE6D73" stroke-width="3.84181" stroke-linecap="round" stroke-dasharray="10.56 8.64"/>
<path d="M389.124 21.854L415.655 48.9868" stroke="#FE6D73" stroke-width="3.84181" stroke-linecap="round" stroke-dasharray="10.56 8.64"/>
<path d="M415.654 48.9868L442.185 21.854" stroke="#FE6D73" stroke-width="3.84181" stroke-linecap="round" stroke-dasharray="10.56 8.64"/>
<path d="M442.188 21.854L468.719 48.9868" stroke="#FE6D73" stroke-width="3.84181" stroke-linecap="round" stroke-dasharray="10.56 8.64"/>
<path d="M468.721 48.9868L495.253 21.854" stroke="#FE6D73" stroke-width="3.84181" stroke-linecap="round" stroke-dasharray="10.56 8.64"/>
<path d="M495.251 21.854L521.782 48.9868" stroke="#FE6D73" stroke-width="3.84181" stroke-linecap="round" stroke-dasharray="10.56 8.64"/>
<path d="M521.78 48.9868L548.312 21.854" stroke="#FE6D73" stroke-width="3.84181" stroke-linecap="round" stroke-dasharray="10.56 8.64"/>
<path d="M548.31 21.854L574.841 48.9868" stroke="#FE6D73" stroke-width="3.84181" stroke-linecap="round" stroke-dasharray="10.56 8.64"/>
<path d="M574.844 48.9868L601.375 21.854" stroke="#FE6D73" stroke-width="3.84181" stroke-linecap="round" stroke-dasharray="10.56 8.64"/>
<path d="M601.378 21.854L627.909 48.9868" stroke="#FE6D73" stroke-width="3.84181" stroke-linecap="round" stroke-dasharray="10.56 8.64"/>
<path d="M627.907 48.9868L654.438 21.854" stroke="#FE6D73" stroke-width="3.84181" stroke-linecap="round" stroke-dasharray="10.56 8.64"/>
<path d="M654.437 21.854L680.968 48.9868" stroke="#FE6D73" stroke-width="3.84181" stroke-linecap="round" stroke-dasharray="10.56 8.64"/>
<path d="M680.966 48.9868L707.497 21.854" stroke="#FE6D73" stroke-width="3.84181" stroke-linecap="round" stroke-dasharray="10.56 8.64"/>
<path d="M707.5 21.854L734.031 48.9868" stroke="#FE6D73" stroke-width="3.84181" stroke-linecap="round" stroke-dasharray="10.56 8.64"/>
<path d="M734.034 48.9868L760.565 21.854" stroke="#FE6D73" stroke-width="3.84181" stroke-linecap="round" stroke-dasharray="10.56 8.64"/>
<path d="M760.563 21.854L787.095 48.9868" stroke="#FE6D73" stroke-width="3.84181" stroke-linecap="round" stroke-dasharray="10.56 8.64"/>
<path d="M787.093 48.9868L813.624 21.854" stroke="#FE6D73" stroke-width="3.84181" stroke-linecap="round" stroke-dasharray="10.56 8.64"/>
<path d="M813.622 21.854L840.154 48.9868" stroke="#FE6D73" stroke-width="3.84181" stroke-linecap="round" stroke-dasharray="10.56 8.64"/>
<path d="M840.156 48.9868L866.688 21.854" stroke="#FE6D73" stroke-width="3.84181" stroke-linecap="round" stroke-dasharray="10.56 8.64"/>
<path d="M866.69 21.854L893.221 48.9868" stroke="#FE6D73" stroke-width="3.84181" stroke-linecap="round" stroke-dasharray="10.56 8.64"/>
<path d="M893.22 48.9868L919.751 21.854" stroke="#FE6D73" stroke-width="3.84181" stroke-linecap="round" stroke-dasharray="10.56 8.64"/>
<path d="M919.749 21.854L946.28 48.9868" stroke="#FE6D73" stroke-width="3.84181" stroke-linecap="round" stroke-dasharray="10.56 8.64"/>
<path d="M946.279 48.9868L972.81 21.854" stroke="#FE6D73" stroke-width="3.84181" stroke-linecap="round" stroke-dasharray="10.56 8.64"/>
<path d="M972.813 21.854L999.344 48.9868" stroke="#FE6D73" stroke-width="3.84181" stroke-linecap="round" stroke-dasharray="10.56 8.64"/>
<path d="M999.346 48.9868L1025.88 21.854" stroke="#FE6D73" stroke-width="3.84181" stroke-linecap="round" stroke-dasharray="10.56 8.64"/>
<path d="M1025.88 21.854L1052.41 48.9868" stroke="#FE6D73" stroke-width="3.84181" stroke-linecap="round" stroke-dasharray="10.56 8.64"/>
<path d="M1052.41 48.9868L1078.94 21.854" stroke="#FE6D73" stroke-width="3.84181" stroke-linecap="round" stroke-dasharray="10.56 8.64"/>
<path d="M1078.93 21.854L1105.47 48.9868" stroke="#FE6D73" stroke-width="3.84181" stroke-linecap="round" stroke-dasharray="10.56 8.64"/>
<path d="M1105.47 48.9868L1132 21.854" stroke="#FE6D73" stroke-width="3.84181" stroke-linecap="round" stroke-dasharray="10.56 8.64"/>
<path d="M1132 21.854L1158.53 48.9868" stroke="#FE6D73" stroke-width="3.84181" stroke-linecap="round" stroke-dasharray="10.56 8.64"/>
<path d="M1158.53 48.9868L1185.06 21.854" stroke="#FE6D73" stroke-width="3.84181" stroke-linecap="round" stroke-dasharray="10.56 8.64"/>
<path d="M1185.06 21.854L1211.59 48.9868" stroke="#FE6D73" stroke-width="3.84181" stroke-linecap="round" stroke-dasharray="10.56 8.64"/>
<path d="M1211.59 48.9868L1238.12 21.854" stroke="#FE6D73" stroke-width="3.84181" stroke-linecap="round" stroke-dasharray="10.56 8.64"/>
<path d="M1238.12 21.854L1264.66 48.9868" stroke="#FE6D73" stroke-width="3.84181" stroke-linecap="round" stroke-dasharray="10.56 8.64"/>
<path d="M1264.66 48.9868L1291.19 21.854" stroke="#FE6D73" stroke-width="3.84181" stroke-linecap="round" stroke-dasharray="10.56 8.64"/>
<path d="M1291.19 21.854L1317.72 48.9868" stroke="#FE6D73" stroke-width="3.84181" stroke-linecap="round" stroke-dasharray="10.56 8.64"/>
<path d="M1317.72 48.9868L1344.25 21.854" stroke="#FE6D73" stroke-width="3.84181" stroke-linecap="round" stroke-dasharray="10.56 8.64"/>
<path d="M1344.25 21.854L1370.78 48.9868" stroke="#FE6D73" stroke-width="3.84181" stroke-linecap="round" stroke-dasharray="10.56 8.64"/>
<circle cx="71.7675" cy="71.7675" r="66.7675" transform="matrix(-0.941905 0.33588 0.33588 0.941905 160.198 2)" fill="#FE6D73" stroke="#FE6D73" stroke-width="10"/>
<circle cx="51.2625" cy="51.2625" r="51.2625" transform="matrix(-0.941905 0.33588 0.33588 0.941905 147.772 28.2021)" fill="#FE6D73"/>
<circle cx="9.94182" cy="9.94182" r="9.94182" transform="matrix(-0.941905 0.33588 0.33588 0.941905 143.611 73.8833)" fill="#FFCB77"/>
<circle cx="9.94182" cy="9.94182" r="9.94182" transform="matrix(-0.941905 0.33588 0.33588 0.941905 99.131 89.7456)" fill="#FFCB77"/>
<circle cx="46.9981" cy="46.9981" r="43.4981" transform="matrix(-0.882529 -0.470258 -0.470258 0.882529 1397.16 631.203)" fill="#FE6D73" stroke="#FE6D73" stroke-width="7"/>
<circle cx="33.5701" cy="33.5701" r="33.5701" transform="matrix(-0.882529 -0.470258 -0.470258 0.882529 1378.99 636.74)" fill="#FE6D73"/>
<circle cx="6.51056" cy="6.51056" r="6.51056" transform="matrix(-0.882529 -0.470258 -0.470258 0.882529 1355.04 654.867)" fill="#FFCB77"/>
<circle cx="6.51056" cy="6.51056" r="6.51056" transform="matrix(-0.882529 -0.470258 -0.470258 0.882529 1327.75 640.324)" fill="#FFCB77"/>
<g clip-path="url(#clip1_0_1)">
<path d="M1377.42 696.531L1377.42 22.4687" stroke="#FE6D73" stroke-width="3.84181" stroke-linecap="round" stroke-dasharray="13.45 10.56"/>
<path d="M1350.28 696.531L1377.41 683.05" stroke="#FE6D73" stroke-width="3.84181" stroke-linecap="round" stroke-dasharray="10.56 8.64"/>
<path d="M1377.41 683.049L1350.28 669.568" stroke="#FE6D73" stroke-width="3.84181" stroke-linecap="round" stroke-dasharray="10.56 8.64"/>
<path d="M1350.28 669.568L1377.41 656.087" stroke="#FE6D73" stroke-width="3.84181" stroke-linecap="round" stroke-dasharray="10.56 8.64"/>
<path d="M1377.41 656.088L1350.28 642.607" stroke="#FE6D73" stroke-width="3.84181" stroke-linecap="round" stroke-dasharray="10.56 8.64"/>
<path d="M1350.28 642.607L1377.41 629.126" stroke="#FE6D73" stroke-width="3.84181" stroke-linecap="round" stroke-dasharray="10.56 8.64"/>
<path d="M1377.41 629.125L1350.28 615.644" stroke="#FE6D73" stroke-width="3.84181" stroke-linecap="round" stroke-dasharray="10.56 8.64"/>
<path d="M1350.28 615.643L1377.41 602.161" stroke="#FE6D73" stroke-width="3.84181" stroke-linecap="round" stroke-dasharray="10.56 8.64"/>
<path d="M1377.41 602.162L1350.28 588.681" stroke="#FE6D73" stroke-width="3.84181" stroke-linecap="round" stroke-dasharray="10.56 8.64"/>
<path d="M1350.28 588.682L1377.41 575.2" stroke="#FE6D73" stroke-width="3.84181" stroke-linecap="round" stroke-dasharray="10.56 8.64"/>
<path d="M1377.41 575.201L1350.28 561.72" stroke="#FE6D73" stroke-width="3.84181" stroke-linecap="round" stroke-dasharray="10.56 8.64"/>
<path d="M1350.28 561.719L1377.41 548.238" stroke="#FE6D73" stroke-width="3.84181" stroke-linecap="round" stroke-dasharray="10.56 8.64"/>
<path d="M1377.41 548.236L1350.28 534.755" stroke="#FE6D73" stroke-width="3.84181" stroke-linecap="round" stroke-dasharray="10.56 8.64"/>
<path d="M1350.28 534.756L1377.41 521.275" stroke="#FE6D73" stroke-width="3.84181" stroke-linecap="round" stroke-dasharray="10.56 8.64"/>
<path d="M1377.41 521.275L1350.28 507.794" stroke="#FE6D73" stroke-width="3.84181" stroke-linecap="round" stroke-dasharray="10.56 8.64"/>
<path d="M1350.28 507.795L1377.41 494.314" stroke="#FE6D73" stroke-width="3.84181" stroke-linecap="round" stroke-dasharray="10.56 8.64"/>
<path d="M1377.41 494.313L1350.28 480.831" stroke="#FE6D73" stroke-width="3.84181" stroke-linecap="round" stroke-dasharray="10.56 8.64"/>
<path d="M1350.28 480.83L1377.41 467.349" stroke="#FE6D73" stroke-width="3.84181" stroke-linecap="round" stroke-dasharray="10.56 8.64"/>
<path d="M1377.41 467.35L1350.28 453.868" stroke="#FE6D73" stroke-width="3.84181" stroke-linecap="round" stroke-dasharray="10.56 8.64"/>
<path d="M1350.28 453.869L1377.41 440.388" stroke="#FE6D73" stroke-width="3.84181" stroke-linecap="round" stroke-dasharray="10.56 8.64"/>
<path d="M1377.41 440.389L1350.28 426.907" stroke="#FE6D73" stroke-width="3.84181" stroke-linecap="round" stroke-dasharray="10.56 8.64"/>
<path d="M1350.28 426.906L1377.41 413.425" stroke="#FE6D73" stroke-width="3.84181" stroke-linecap="round" stroke-dasharray="10.56 8.64"/>
<path d="M1377.41 413.424L1350.28 399.943" stroke="#FE6D73" stroke-width="3.84181" stroke-linecap="round" stroke-dasharray="10.56 8.64"/>
<path d="M1350.28 399.943L1377.41 386.462" stroke="#FE6D73" stroke-width="3.84181" stroke-linecap="round" stroke-dasharray="10.56 8.64"/>
<path d="M1377.41 386.463L1350.28 372.982" stroke="#FE6D73" stroke-width="3.84181" stroke-linecap="round" stroke-dasharray="10.56 8.64"/>
<path d="M1350.28 372.982L1377.41 359.501" stroke="#FE6D73" stroke-width="3.84181" stroke-linecap="round" stroke-dasharray="10.56 8.64"/>
<path d="M1377.41 359.5L1350.28 346.019" stroke="#FE6D73" stroke-width="3.84181" stroke-linecap="round" stroke-dasharray="10.56 8.64"/>
<path d="M1350.28 346.018L1377.41 332.536" stroke="#FE6D73" stroke-width="3.84181" stroke-linecap="round" stroke-dasharray="10.56 8.64"/>
<path d="M1377.41 332.537L1350.28 319.056" stroke="#FE6D73" stroke-width="3.84181" stroke-linecap="round" stroke-dasharray="10.56 8.64"/>
<path d="M1350.28 319.057L1377.41 305.575" stroke="#FE6D73" stroke-width="3.84181" stroke-linecap="round" stroke-dasharray="10.56 8.64"/>
<path d="M1377.41 305.576L1350.28 292.095" stroke="#FE6D73" stroke-width="3.84181" stroke-linecap="round" stroke-dasharray="10.56 8.64"/>
<path d="M1350.28 292.094L1377.41 278.613" stroke="#FE6D73" stroke-width="3.84181" stroke-linecap="round" stroke-dasharray="10.56 8.64"/>
<path d="M1377.41 278.611L1350.28 265.13" stroke="#FE6D73" stroke-width="3.84181" stroke-linecap="round" stroke-dasharray="10.56 8.64"/>
<path d="M1350.28 265.131L1377.41 251.65" stroke="#FE6D73" stroke-width="3.84181" stroke-linecap="round" stroke-dasharray="10.56 8.64"/>
<path d="M1377.41 251.65L1350.28 238.169" stroke="#FE6D73" stroke-width="3.84181" stroke-linecap="round" stroke-dasharray="10.56 8.64"/>
<path d="M1350.28 238.17L1377.41 224.689" stroke="#FE6D73" stroke-width="3.84181" stroke-linecap="round" stroke-dasharray="10.56 8.64"/>
<path d="M1377.41 224.688L1350.28 211.206" stroke="#FE6D73" stroke-width="3.84181" stroke-linecap="round" stroke-dasharray="10.56 8.64"/>
<path d="M1350.28 211.205L1377.41 197.724" stroke="#FE6D73" stroke-width="3.84181" stroke-linecap="round" stroke-dasharray="10.56 8.64"/>
<path d="M1377.41 197.725L1350.28 184.243" stroke="#FE6D73" stroke-width="3.84181" stroke-linecap="round" stroke-dasharray="10.56 8.64"/>
<path d="M1350.28 184.244L1377.41 170.763" stroke="#FE6D73" stroke-width="3.84181" stroke-linecap="round" stroke-dasharray="10.56 8.64"/>
<path d="M1377.41 170.764L1350.28 157.282" stroke="#FE6D73" stroke-width="3.84181" stroke-linecap="round" stroke-dasharray="10.56 8.64"/>
<path d="M1350.28 157.281L1377.41 143.8" stroke="#FE6D73" stroke-width="3.84181" stroke-linecap="round" stroke-dasharray="10.56 8.64"/>
<path d="M1377.41 143.799L1350.28 130.318" stroke="#FE6D73" stroke-width="3.84181" stroke-linecap="round" stroke-dasharray="10.56 8.64"/>
<path d="M1350.28 130.318L1377.41 116.837" stroke="#FE6D73" stroke-width="3.84181" stroke-linecap="round" stroke-dasharray="10.56 8.64"/>
<path d="M1377.41 116.838L1350.28 103.357" stroke="#FE6D73" stroke-width="3.84181" stroke-linecap="round" stroke-dasharray="10.56 8.64"/>
<path d="M1350.28 103.357L1377.41 89.8762" stroke="#FE6D73" stroke-width="3.84181" stroke-linecap="round" stroke-dasharray="10.56 8.64"/>
<path d="M1377.41 89.875L1350.28 76.3937" stroke="#FE6D73" stroke-width="3.84181" stroke-linecap="round" stroke-dasharray="10.56 8.64"/>
<path d="M1350.28 76.3926L1377.41 62.9113" stroke="#FE6D73" stroke-width="3.84181" stroke-linecap="round" stroke-dasharray="10.56 8.64"/>
<path d="M1377.41 62.9121L1350.28 49.4309" stroke="#FE6D73" stroke-width="3.84181" stroke-linecap="round" stroke-dasharray="10.56 8.64"/>
<path d="M1350.28 49.4316L1377.41 35.9504" stroke="#FE6D73" stroke-width="3.84181" stroke-linecap="round" stroke-dasharray="10.56 8.64"/>
<path d="M1377.41 35.9514L1350.28 22.4702" stroke="#FE6D73" stroke-width="3.84181" stroke-linecap="round" stroke-dasharray="10.56 8.64"/>
</g>
<line x1="907.501" y1="367.5" x2="949.501" y2="367.5" stroke="#FE6D73" stroke-width="3" stroke-linecap="round"/>
<line x1="907.501" y1="340.5" x2="949.501" y2="340.5" stroke="#FE6D73" stroke-width="3" stroke-linecap="round"/>
<line x1="1127.5" y1="367.5" x2="1169.5" y2="367.5" stroke="#FE6D73" stroke-width="3" stroke-linecap="round"/>
<line x1="1127.5" y1="340.5" x2="1169.5" y2="340.5" stroke="#FE6D73" stroke-width="3" stroke-linecap="round"/>
<line x1="1025.5" y1="229.5" x2="1025.5" y2="271.5" stroke="#FE6D73" stroke-width="3" stroke-linecap="round"/>
<line x1="1052.5" y1="229.5" x2="1052.5" y2="271.5" stroke="#FE6D73" stroke-width="3" stroke-linecap="round"/>
<line x1="1026.5" y1="441.5" x2="1026.5" y2="483.5" stroke="#FE6D73" stroke-width="3" stroke-linecap="round"/>
<line x1="1053.5" y1="441.5" x2="1053.5" y2="483.5" stroke="#FE6D73" stroke-width="3" stroke-linecap="round"/>
<g clip-path="url(#clip2_0_1)">
<rect x="937.001" y="249" width="212" height="212" rx="13" fill="#FEF9EF"/>
<g clip-path="url(#clip3_0_1)">
<rect width="212" height="212" transform="translate(933.972 249)" fill="white"/>
<path d="M1003.43 424.705C994.005 424.705 986.467 421.945 980.814 416.426C975.295 410.908 972.535 403.505 972.535 394.217C972.535 384.391 975.429 376.786 981.217 371.402C987.14 365.883 995.822 363.124 1007.26 363.124H1019.18V340.914H1007.26C995.822 340.914 987.14 338.222 981.217 332.838C975.429 327.319 972.535 319.647 972.535 309.821C972.535 300.533 975.295 293.13 980.814 287.611C986.467 282.093 994.005 279.333 1003.43 279.333C1010.96 279.333 1016.89 280.746 1021.19 283.573C1025.64 286.4 1028.73 290.169 1030.48 294.88C1032.37 299.591 1033.31 304.773 1033.31 310.426V327.185H1055.52V310.426C1055.52 304.773 1056.39 299.591 1058.14 294.88C1060.03 290.169 1063.12 286.4 1067.43 283.573C1071.87 280.746 1077.86 279.333 1085.4 279.333C1094.82 279.333 1102.29 282.093 1107.81 287.611C1113.46 293.13 1116.29 300.533 1116.29 309.821C1116.29 319.647 1113.4 327.319 1107.61 332.838C1101.82 338.222 1093.14 340.914 1081.56 340.914H1069.65V363.124H1081.56C1093.14 363.124 1101.82 365.883 1107.61 371.402C1113.4 376.786 1116.29 384.391 1116.29 394.217C1116.29 403.505 1113.46 410.908 1107.81 416.426C1102.29 421.945 1094.82 424.705 1085.4 424.705C1077.86 424.705 1071.87 423.291 1067.43 420.465C1063.12 417.638 1060.03 413.869 1058.14 409.158C1056.39 404.447 1055.52 399.265 1055.52 393.611V376.853H1033.31V393.611C1033.31 399.265 1032.37 404.447 1030.48 409.158C1028.73 413.869 1025.64 417.638 1021.19 420.465C1016.89 423.291 1010.96 424.705 1003.43 424.705ZM1069.65 310.023V327.185H1081.56C1088.7 327.185 1093.88 325.771 1097.11 322.945C1100.34 319.983 1101.96 315.609 1101.96 309.821C1101.96 303.898 1100.34 299.658 1097.11 297.101C1094.01 294.543 1090.11 293.265 1085.4 293.265C1080.15 293.265 1076.18 294.813 1073.49 297.908C1070.93 300.87 1069.65 304.908 1069.65 310.023ZM1007.26 327.185H1019.18V310.023C1019.18 304.908 1017.83 300.87 1015.14 297.908C1012.58 294.813 1008.68 293.265 1003.43 293.265C998.716 293.265 994.745 294.543 991.514 297.101C988.419 299.658 986.871 303.898 986.871 309.821C986.871 315.609 988.486 319.983 991.716 322.945C994.947 325.771 1000.13 327.185 1007.26 327.185ZM1033.31 363.124H1055.52V340.914H1033.31V363.124ZM1003.43 410.773C1008.68 410.773 1012.58 409.293 1015.14 406.331C1017.83 403.235 1019.18 399.13 1019.18 394.015V376.853H1007.26C1000.13 376.853 994.947 378.334 991.716 381.295C988.486 384.122 986.871 388.429 986.871 394.217C986.871 400.14 988.419 404.38 991.514 406.937C994.745 409.494 998.716 410.773 1003.43 410.773ZM1069.65 394.015C1069.65 399.13 1070.93 403.235 1073.49 406.331C1076.18 409.293 1080.15 410.773 1085.4 410.773C1090.11 410.773 1094.01 409.494 1097.11 406.937C1100.34 404.38 1101.96 400.14 1101.96 394.217C1101.96 388.429 1100.34 384.122 1097.11 381.295C1093.88 378.334 1088.7 376.853 1081.56 376.853H1069.65V394.015Z" fill="#227C9D"/>
</g>
<line x1="1044.01" y1="248.971" x2="1045.02" y2="460.971" stroke="#227C9D" stroke-width="12.1143"/>
<line x1="937.001" y1="351.467" x2="1149" y2="351.467" stroke="#227C9D" stroke-width="13.1238"/>
<path d="M950.549 444.84V430.042H952.329V443.292H959.347V444.84H950.549ZM967.755 431.484C967.26 431.484 966.914 431.385 966.716 431.187C966.518 430.975 966.419 430.714 966.419 430.403V430.063C966.419 429.753 966.518 429.498 966.716 429.3C966.914 429.088 967.26 428.982 967.755 428.982C968.249 428.982 968.596 429.088 968.794 429.3C968.991 429.498 969.09 429.753 969.09 430.063V430.403C969.09 430.714 968.991 430.975 968.794 431.187C968.596 431.385 968.249 431.484 967.755 431.484ZM962.964 443.398H966.907V435.342H962.964V433.901H968.603V443.398H972.292V444.84H962.964V443.398ZM975.506 444.84V433.901H977.202V435.681H977.286C977.4 435.413 977.541 435.159 977.71 434.918C977.88 434.664 978.085 434.445 978.325 434.261C978.58 434.077 978.876 433.929 979.216 433.816C979.555 433.703 979.951 433.646 980.403 433.646C981.548 433.646 982.466 434.014 983.159 434.749C983.851 435.469 984.198 436.494 984.198 437.823V444.84H982.502V438.119C982.502 437.116 982.283 436.374 981.844 435.893C981.406 435.399 980.763 435.151 979.915 435.151C979.576 435.151 979.244 435.194 978.919 435.279C978.594 435.363 978.304 435.491 978.05 435.66C977.795 435.83 977.59 436.049 977.435 436.317C977.279 436.586 977.202 436.897 977.202 437.25V444.84H975.506ZM992.691 445.094C991.899 445.094 991.185 444.96 990.549 444.691C989.928 444.423 989.39 444.041 988.938 443.547C988.5 443.038 988.161 442.437 987.921 441.745C987.68 441.038 987.56 440.254 987.56 439.391C987.56 438.515 987.68 437.724 987.921 437.017C988.175 436.31 988.521 435.71 988.959 435.215C989.398 434.706 989.92 434.318 990.528 434.049C991.15 433.781 991.836 433.646 992.585 433.646C993.32 433.646 993.984 433.781 994.577 434.049C995.185 434.318 995.701 434.692 996.125 435.173C996.549 435.639 996.874 436.197 997.1 436.847C997.326 437.498 997.439 438.211 997.439 438.989V439.794H989.341V440.303C989.341 440.784 989.419 441.229 989.574 441.639C989.73 442.049 989.949 442.402 990.231 442.699C990.528 442.995 990.882 443.229 991.291 443.398C991.715 443.554 992.182 443.631 992.691 443.631C993.426 443.631 994.062 443.462 994.599 443.123C995.136 442.783 995.546 442.317 995.828 441.723L997.079 442.571C996.754 443.306 996.21 443.914 995.447 444.395C994.698 444.861 993.779 445.094 992.691 445.094ZM992.585 435.045C992.118 435.045 991.687 435.13 991.291 435.3C990.896 435.469 990.549 435.703 990.253 435.999C989.97 436.296 989.744 436.65 989.574 437.059C989.419 437.455 989.341 437.893 989.341 438.374V438.522H995.616V438.289C995.616 437.809 995.538 437.37 995.383 436.975C995.242 436.579 995.037 436.24 994.768 435.957C994.514 435.66 994.196 435.434 993.814 435.279C993.447 435.123 993.037 435.045 992.585 435.045Z" fill="#227C9D" fill-opacity="0.49"/>
</g>
<line x1="762.501" y1="367.5" x2="804.501" y2="367.5" stroke="#FE6D73" stroke-width="3" stroke-linecap="round"/>
<line x1="762.501" y1="340.5" x2="804.501" y2="340.5" stroke="#FE6D73" stroke-width="3" stroke-linecap="round"/>
<line x1="658.501" y1="230.5" x2="658.501" y2="272.5" stroke="#FE6D73" stroke-width="3" stroke-linecap="round"/>
<line x1="685.501" y1="230.5" x2="685.501" y2="272.5" stroke="#FE6D73" stroke-width="3" stroke-linecap="round"/>
<line x1="658.501" y1="443.5" x2="658.501" y2="485.5" stroke="#FE6D73" stroke-width="3" stroke-linecap="round"/>
<line x1="685.501" y1="443.5" x2="685.501" y2="485.5" stroke="#FE6D73" stroke-width="3" stroke-linecap="round"/>
<line x1="540.501" y1="367.5" x2="582.501" y2="367.5" stroke="#FE6D73" stroke-width="3" stroke-linecap="round"/>
<line x1="540.501" y1="340.5" x2="582.501" y2="340.5" stroke="#FE6D73" stroke-width="3" stroke-linecap="round"/>
<g clip-path="url(#clip4_0_1)">
<rect x="568.001" y="251.99" width="212" height="212" rx="13" fill="#FEF9EF"/>
<g clip-path="url(#clip5_0_1)">
<rect width="212" height="212" transform="translate(568.001 241.895)" fill="white"/>
<path d="M654.407 297.537C663.758 295.511 673.119 297.321 682.49 302.966C691.768 308.676 700.924 318.033 709.959 331.038C721.482 347.623 727.335 362.28 727.516 375.009C727.668 387.898 721.76 398.5 709.792 406.815C709.133 407.273 708.52 407.699 707.955 408.091C707.295 408.55 706.65 408.928 706.019 409.227L713.492 425.412L704.587 431.6L696.12 413.38C693.015 414.14 690.029 414.468 687.162 414.364C684.295 414.26 681.533 413.804 678.876 412.995C676.284 412.281 673.735 411.328 671.229 410.134C668.789 409.035 666.457 407.791 664.234 406.401L670.9 395.482C674.154 397.553 677.434 399.256 680.738 400.593C683.948 401.996 687.411 402.454 691.126 401.969L670.553 357.578L643.696 376.238L633.777 361.962C630.111 356.685 627.351 351.406 625.499 346.126C623.647 340.846 622.88 335.72 623.198 330.748C623.516 325.776 624.985 321.053 627.605 316.578C630.224 312.103 634.173 308.032 639.45 304.366C640.298 303.777 641.179 303.234 642.092 302.739C642.846 302.216 643.633 301.739 644.452 301.309L636.881 284.982L645.786 278.795L654.407 297.537ZM700.797 398.393C701.24 398.226 701.932 397.814 702.874 397.16C706.927 394.344 709.904 391.088 711.806 387.391C713.774 383.788 714.733 379.838 714.682 375.542C714.631 371.246 713.716 366.712 711.938 361.939C710.065 357.233 707.36 352.335 703.825 347.246L692.629 331.132C687.587 323.876 682.277 318.344 676.697 314.536C671.117 310.728 665.464 308.927 659.738 309.132L700.797 398.393ZM645.889 313.935C639.481 318.387 636.086 323.959 635.706 330.651C635.231 337.408 637.645 344.603 642.948 352.236L648.055 359.586L665.866 347.212L649.478 311.86C648.941 312.093 648.357 312.359 647.726 312.658C647.067 313.116 646.454 313.542 645.889 313.935Z" fill="#227C9D"/>
</g>
<line x1="582.455" y1="372.267" x2="712.256" y2="450.283" stroke="#227C9D" stroke-width="9.08571"/>
<path d="M706.378 266.26H714.667V267.807H708.159V281.057H706.378V266.26ZM716.843 279.616H718.2C718.412 279.347 718.595 279.029 718.751 278.662C718.92 278.294 719.055 277.856 719.154 277.347C719.267 276.838 719.351 276.252 719.408 275.588C719.464 274.909 719.493 274.125 719.493 273.234V270.118H726.764V281.057H725.068V271.56H721.146V273.277C721.146 275.255 720.998 276.81 720.701 277.941C720.418 279.057 720.037 279.856 719.556 280.336C719.288 280.605 718.991 280.796 718.666 280.909C718.341 281.008 717.952 281.057 717.5 281.057H716.843V279.616ZM731.017 270.118H732.713V275.694L732.544 278.492H732.628L738.119 270.118H739.709V281.057H738.013V275.482L738.183 272.683H738.098L732.607 281.057H731.017V270.118ZM745.828 279.891C746.294 279.891 746.655 279.757 746.909 279.488C747.163 279.22 747.291 278.817 747.291 278.28V272.895C747.291 272.358 747.163 271.955 746.909 271.687C746.655 271.418 746.294 271.284 745.828 271.284C745.573 271.284 745.347 271.333 745.149 271.432C744.952 271.531 744.789 271.708 744.662 271.962C744.535 272.217 744.436 272.563 744.365 273.001C744.294 273.425 744.259 273.969 744.259 274.634V276.542C744.259 277.206 744.294 277.757 744.365 278.195C744.436 278.619 744.535 278.958 744.662 279.213C744.789 279.467 744.952 279.644 745.149 279.743C745.347 279.842 745.573 279.891 745.828 279.891ZM747.291 279.934H747.227C746.987 280.428 746.704 280.782 746.379 280.994C746.068 281.206 745.708 281.312 745.298 281.312C744.874 281.312 744.492 281.227 744.153 281.057C743.828 280.873 743.552 280.562 743.326 280.124C743.1 279.686 742.93 279.1 742.817 278.365C742.704 277.63 742.648 276.704 742.648 275.588C742.648 274.471 742.704 273.545 742.817 272.81C742.93 272.075 743.1 271.489 743.326 271.051C743.552 270.613 743.828 270.309 744.153 270.139C744.492 269.955 744.874 269.864 745.298 269.864C745.708 269.864 746.068 269.97 746.379 270.182C746.704 270.394 746.987 270.747 747.227 271.242H747.291V266.005H748.859V271.242H748.923C749.163 270.747 749.439 270.394 749.75 270.182C750.075 269.97 750.442 269.864 750.852 269.864C751.276 269.864 751.651 269.955 751.976 270.139C752.315 270.309 752.598 270.613 752.824 271.051C753.05 271.489 753.22 272.075 753.333 272.81C753.446 273.545 753.502 274.471 753.502 275.588C753.502 276.704 753.446 277.63 753.333 278.365C753.22 279.1 753.05 279.686 752.824 280.124C752.598 280.562 752.315 280.873 751.976 281.057C751.651 281.227 751.276 281.312 750.852 281.312C750.442 281.312 750.075 281.206 749.75 280.994C749.439 280.782 749.163 280.428 748.923 279.934H748.859V285.297H747.291V279.934ZM750.322 279.891C750.577 279.891 750.803 279.842 751.001 279.743C751.198 279.644 751.361 279.467 751.488 279.213C751.615 278.958 751.714 278.619 751.785 278.195C751.856 277.757 751.891 277.206 751.891 276.542V274.634C751.891 273.969 751.856 273.425 751.785 273.001C751.714 272.563 751.615 272.217 751.488 271.962C751.361 271.708 751.198 271.531 751.001 271.432C750.803 271.333 750.577 271.284 750.322 271.284C749.856 271.284 749.495 271.418 749.241 271.687C748.987 271.955 748.859 272.358 748.859 272.895V278.28C748.859 278.817 748.987 279.22 749.241 279.488C749.495 279.757 749.856 279.891 750.322 279.891Z" fill="#227C9D" fill-opacity="0.49"/>
</g>
<line x1="171.501" y1="364.5" x2="213.501" y2="364.5" stroke="#FE6D73" stroke-width="3" stroke-linecap="round"/>
<line x1="171.501" y1="337.5" x2="213.501" y2="337.5" stroke="#FE6D73" stroke-width="3" stroke-linecap="round"/>
<line x1="395.501" y1="364.5" x2="437.501" y2="364.5" stroke="#FE6D73" stroke-width="3" stroke-linecap="round"/>
<line x1="395.501" y1="337.5" x2="437.501" y2="337.5" stroke="#FE6D73" stroke-width="3" stroke-linecap="round"/>
<line x1="288.501" y1="226.5" x2="288.501" y2="268.5" stroke="#FE6D73" stroke-width="3" stroke-linecap="round"/>
<line x1="315.501" y1="226.5" x2="315.501" y2="268.5" stroke="#FE6D73" stroke-width="3" stroke-linecap="round"/>
<line x1="290.501" y1="437.5" x2="290.501" y2="479.5" stroke="#FE6D73" stroke-width="3" stroke-linecap="round"/>
<line x1="317.501" y1="437.5" x2="317.501" y2="479.5" stroke="#FE6D73" stroke-width="3" stroke-linecap="round"/>
<g clip-path="url(#clip6_0_1)">
<rect x="198.001" y="247.99" width="212" height="212" rx="13" fill="#FEF9EF"/>
<rect x="212.639" y="263.638" width="139.314" height="139.314" rx="10.6" stroke="#227C9D" stroke-width="9.08571"/>
<rect x="256.049" y="307.047" width="139.314" height="139.314" rx="10.6" stroke="#227C9D" stroke-width="9.08571"/>
<rect x="233.839" y="287.867" width="139.314" height="139.314" rx="10.6" fill="white" stroke="#227C9D" stroke-width="9.08571"/>
<g clip-path="url(#clip7_0_1)">
<path d="M270.889 412.994C263.216 412.994 256.89 410.437 251.909 405.322C246.929 400.207 244.439 392.669 244.439 382.708C244.439 372.209 247.468 364.335 253.525 359.086C259.716 353.701 268.668 351.009 280.378 351.009H293.098V340.308C293.098 331.29 291.617 325.031 288.656 321.531C285.829 317.897 281.859 316.08 276.744 316.08C271.629 316.08 267.591 317.56 264.629 320.522C261.803 323.483 259.447 327.319 257.563 332.03L246.862 325.367C247.939 322.675 249.352 320.051 251.102 317.493C252.986 314.936 255.14 312.647 257.563 310.628C260.12 308.609 263.014 306.994 266.245 305.783C269.61 304.571 273.311 303.966 277.349 303.966C283.407 303.966 288.522 305.312 292.694 308.004C296.867 310.696 300.097 314.599 302.386 319.714H302.991C305.683 313.926 309.183 309.888 313.49 307.6C317.932 305.177 322.778 303.966 328.028 303.966C338.527 303.966 346.468 308.004 351.852 316.08C357.236 324.021 359.929 335.867 359.929 351.615V362.518H307.837V367.566C307.837 377.122 309.452 384.929 312.683 390.987C316.048 397.044 320.894 400.072 327.22 400.072C329.777 400.072 332.066 399.601 334.085 398.659C336.238 397.582 338.056 396.236 339.536 394.621C341.151 392.871 342.497 390.919 343.574 388.766C344.786 386.612 345.795 384.391 346.603 382.103L358.313 387.554C357.236 390.65 355.756 393.746 353.871 396.842C352.122 399.803 349.901 402.495 347.209 404.918C344.651 407.341 341.622 409.293 338.123 410.773C334.758 412.254 330.989 412.994 326.816 412.994C319.951 412.994 314.029 410.975 309.049 406.937C304.068 402.899 300.165 397.246 297.338 389.977H296.732C294.848 397.919 291.617 403.774 287.041 407.543C282.599 411.177 277.215 412.994 270.889 412.994ZM273.715 400.476C276.946 400.476 279.772 399.938 282.195 398.861C284.618 397.649 286.637 396.101 288.252 394.217C289.868 392.198 291.079 389.977 291.887 387.554C292.694 384.997 293.098 382.305 293.098 379.478V362.518H282.599C275.196 362.518 269.408 363.864 265.235 366.556C261.197 369.248 259.178 373.69 259.178 379.882V382.91C259.178 388.429 260.255 392.736 262.409 395.832C264.562 398.928 268.331 400.476 273.715 400.476ZM327.22 315.676C321.028 315.676 316.25 318.032 312.885 322.743C309.52 327.319 307.837 334.453 307.837 344.145V351.009H346.603V344.145C346.603 334.453 344.92 327.319 341.555 322.743C338.19 318.032 333.412 315.676 327.22 315.676Z" fill="#227C9D"/>
</g>
<path d="M216.424 435.576C215.491 435.576 214.728 435.265 214.134 434.644C213.555 434.008 213.265 433.068 213.265 431.824C213.265 430.58 213.555 429.647 214.134 429.026C214.728 428.39 215.491 428.072 216.424 428.072C217.357 428.072 218.113 428.39 218.692 429.026C219.286 429.647 219.583 430.58 219.583 431.824C219.583 433.068 219.286 434.008 218.692 434.644C218.113 435.265 217.357 435.576 216.424 435.576ZM216.424 434.432C216.933 434.432 217.342 434.255 217.653 433.902C217.978 433.548 218.141 433.032 218.141 432.354V431.294C218.141 430.616 217.978 430.1 217.653 429.746C217.342 429.393 216.933 429.216 216.424 429.216C215.915 429.216 215.498 429.393 215.173 429.746C214.862 430.1 214.707 430.616 214.707 431.294V432.354C214.707 433.032 214.862 433.548 215.173 433.902C215.498 434.255 215.915 434.432 216.424 434.432ZM223.653 428.326H225.179L221.787 434.686H220.261L223.653 428.326ZM216.615 436.764H218.141L214.749 443.124H213.223L216.615 436.764ZM221.978 443.378C221.045 443.378 220.282 443.067 219.689 442.445C219.109 441.809 218.819 440.869 218.819 439.626C218.819 438.382 219.109 437.449 219.689 436.827C220.282 436.191 221.045 435.873 221.978 435.873C222.911 435.873 223.667 436.191 224.247 436.827C224.84 437.449 225.137 438.382 225.137 439.626C225.137 440.869 224.84 441.809 224.247 442.445C223.667 443.067 222.911 443.378 221.978 443.378ZM221.978 442.233C222.487 442.233 222.897 442.056 223.208 441.703C223.533 441.35 223.695 440.834 223.695 440.156V439.096C223.695 438.417 223.533 437.901 223.208 437.548C222.897 437.195 222.487 437.018 221.978 437.018C221.469 437.018 221.052 437.195 220.727 437.548C220.416 437.901 220.261 438.417 220.261 439.096V440.156C220.261 440.834 220.416 441.35 220.727 441.703C221.052 442.056 221.469 442.233 221.978 442.233Z" fill="#227C9D" fill-opacity="0.49"/>
<path d="M391.359 277.311H388.751C387.677 277.311 386.773 277.128 386.038 276.76C385.317 276.407 384.731 275.863 384.278 275.128C383.84 274.407 383.522 273.502 383.324 272.414C383.141 271.326 383.049 270.047 383.049 268.577C383.049 266.938 383.155 265.567 383.367 264.464C383.593 263.348 383.918 262.45 384.342 261.772C384.766 261.093 385.289 260.613 385.911 260.33C386.547 260.033 387.282 259.885 388.115 259.885C388.963 259.885 389.684 260.019 390.278 260.288C390.886 260.556 391.38 260.924 391.762 261.39C392.143 261.857 392.419 262.415 392.589 263.065C392.772 263.701 392.864 264.386 392.864 265.121V273.008H391.359V271.799H391.253C391.112 272.167 390.879 272.506 390.553 272.817C390.228 273.114 389.755 273.262 389.133 273.262C388.271 273.262 387.585 272.902 387.077 272.181C386.568 271.446 386.313 270.294 386.313 268.725C386.313 267.157 386.568 266.005 387.077 265.27C387.585 264.535 388.271 264.167 389.133 264.167C389.444 264.167 389.713 264.21 389.939 264.295C390.179 264.379 390.384 264.492 390.553 264.634C390.723 264.775 390.864 264.931 390.977 265.1C391.091 265.27 391.182 265.446 391.253 265.63H391.359V265.121C391.359 263.92 391.105 262.973 390.596 262.281C390.101 261.588 389.289 261.242 388.158 261.242C386.9 261.242 385.995 261.729 385.444 262.705C384.907 263.666 384.639 265.213 384.639 267.347V270.082C384.639 270.902 384.695 271.672 384.808 272.393C384.921 273.1 385.126 273.722 385.423 274.259C385.734 274.782 386.151 275.191 386.674 275.488C387.211 275.799 387.903 275.955 388.751 275.955H391.359V277.311ZM389.684 271.99C390.193 271.99 390.596 271.849 390.893 271.566C391.204 271.284 391.359 270.874 391.359 270.337V267.093C391.359 266.556 391.204 266.146 390.893 265.863C390.596 265.581 390.193 265.439 389.684 265.439C389.091 265.439 388.638 265.644 388.327 266.054C388.031 266.45 387.882 267.121 387.882 268.068V269.361C387.882 270.308 388.031 270.987 388.327 271.397C388.638 271.792 389.091 271.99 389.684 271.99Z" fill="#227C9D" fill-opacity="0.49"/>
</g>
<defs>
<clipPath id="clip0_0_1">
<rect width="696" height="54.2655" fill="white" transform="matrix(-4.37114e-08 -1 -1 4.37114e-08 88.6748 707)"/>
</clipPath>
<clipPath id="clip1_0_1">
<rect width="719" height="54.2655" fill="white" transform="translate(1334 719) rotate(-90)"/>
</clipPath>
<clipPath id="clip2_0_1">
<rect x="937.001" y="249" width="212" height="212" rx="13" fill="white"/>
</clipPath>
<clipPath id="clip3_0_1">
<rect width="212" height="212" fill="white" transform="translate(933.972 249)"/>
</clipPath>
<clipPath id="clip4_0_1">
<rect x="568.001" y="251.99" width="212" height="212" rx="13" fill="white"/>
</clipPath>
<clipPath id="clip5_0_1">
<rect width="212" height="212" fill="white" transform="translate(568.001 241.895)"/>
</clipPath>
<clipPath id="clip6_0_1">
<rect x="198.001" y="247.99" width="212" height="212" rx="13" fill="white"/>
</clipPath>
<clipPath id="clip7_0_1">
<rect width="212" height="212" fill="white" transform="translate(198.001 247.99)"/>
</clipPath>
</defs>
</svg>
