<svg width="1334" height="629" viewBox="0 0 1334 629" fill="none" xmlns="http://www.w3.org/2000/svg">
<path d="M214.227 482.434L201.359 482.434L201.359 478.922L206.998 474.231C207.972 473.393 208.673 472.667 209.1 472.052C209.528 471.436 209.741 470.787 209.741 470.103L209.741 469.847C209.741 469.095 209.519 468.531 209.075 468.155C208.63 467.762 208.032 467.565 207.28 467.565C206.426 467.565 205.768 467.813 205.306 468.309C204.845 468.805 204.52 469.394 204.332 470.078L200.974 468.796C201.179 468.181 201.461 467.6 201.82 467.053C202.179 466.489 202.632 466.002 203.179 465.592C203.743 465.181 204.392 464.857 205.127 464.618C205.862 464.361 206.708 464.233 207.665 464.233C208.639 464.233 209.51 464.37 210.28 464.643C211.049 464.917 211.698 465.293 212.228 465.771C212.758 466.25 213.159 466.822 213.433 467.489C213.706 468.138 213.843 468.847 213.843 469.616C213.843 470.368 213.715 471.06 213.458 471.693C213.219 472.308 212.877 472.889 212.433 473.436C212.006 473.983 211.493 474.512 210.895 475.025C210.314 475.538 209.69 476.051 209.023 476.563L205.614 479.204L214.227 479.204L214.227 482.434ZM238.97 482.741C237.928 482.741 236.988 482.587 236.15 482.28C235.33 481.955 234.629 481.494 234.048 480.896C233.484 480.297 233.049 479.571 232.741 478.717C232.433 477.862 232.28 476.897 232.28 475.82C232.28 474.743 232.433 473.778 232.741 472.923C233.049 472.069 233.484 471.342 234.048 470.744C234.629 470.146 235.33 469.693 236.15 469.386C236.988 469.061 237.919 468.899 238.945 468.899C240.397 468.899 241.559 469.198 242.431 469.796C243.32 470.377 243.995 471.154 244.456 472.128L241.534 473.718C241.294 473.205 240.978 472.778 240.585 472.436C240.209 472.094 239.662 471.923 238.945 471.923C238.073 471.923 237.398 472.18 236.92 472.692C236.458 473.188 236.227 473.872 236.227 474.743L236.227 476.897C236.227 477.768 236.458 478.46 236.92 478.973C237.398 479.469 238.09 479.716 238.996 479.716C239.731 479.716 240.303 479.545 240.713 479.204C241.141 478.862 241.5 478.418 241.79 477.871L244.661 479.511C244.183 480.485 243.482 481.271 242.559 481.87C241.653 482.451 240.457 482.741 238.97 482.741ZM251.931 472.154L247.574 472.154L247.574 469.206L260.032 469.206L260.032 472.154L255.674 472.154L255.674 482.434L251.931 482.434L251.931 472.154ZM263.226 469.206L266.918 469.206L266.918 473.461L266.61 477.358L266.764 477.358L271.558 469.206L275.121 469.206L275.121 482.434L271.429 482.434L271.429 478.178L271.737 474.282L271.583 474.282L266.789 482.434L263.226 482.434L263.226 469.206ZM277.418 479.486L279.212 479.486C279.588 479.024 279.879 478.366 280.084 477.512C280.289 476.657 280.391 475.435 280.391 473.846L280.391 469.206L290.492 469.206L290.492 482.434L286.698 482.434L286.698 472.154L283.801 472.154L283.801 473.949C283.801 475.025 283.758 475.965 283.673 476.768C283.587 477.572 283.468 478.264 283.314 478.845C283.16 479.426 282.981 479.913 282.775 480.306C282.57 480.699 282.348 481.015 282.109 481.254C281.613 481.75 281.084 482.1 280.52 482.305C279.973 482.493 279.289 482.587 278.469 482.587L277.418 482.587L277.418 479.486ZM293.378 479.486L294.916 479.486L295.557 478.358C295.984 477.64 296.642 477.281 297.531 477.281L297.531 477.127C296.42 477.025 295.514 476.683 294.814 476.102C294.113 475.521 293.763 474.675 293.763 473.564C293.763 472.898 293.874 472.299 294.096 471.77C294.318 471.223 294.626 470.761 295.019 470.385C295.412 470.009 295.882 469.719 296.429 469.514C296.993 469.309 297.599 469.206 298.249 469.206L305.632 469.206L305.632 482.434L301.838 482.434L301.838 477.691L300.197 477.691L298.608 480.511C298.198 481.246 297.753 481.75 297.275 482.023C296.796 482.297 296.172 482.434 295.403 482.434L293.378 482.434L293.378 479.486ZM301.838 471.898L299.018 471.898C298.556 471.898 298.198 472.043 297.941 472.334C297.702 472.624 297.582 472.94 297.582 473.282L297.582 473.872C297.582 474.213 297.702 474.521 297.941 474.794C298.198 475.051 298.556 475.179 299.018 475.179L301.838 475.179L301.838 471.898Z" fill="#FE6D73"/>
<path d="M160.578 2.10141H155.832L155.597 5.34905H155.729C155.837 5.11393 155.959 4.8984 156.096 4.70246C156.233 4.49673 156.395 4.32528 156.581 4.18813C156.767 4.04118 156.983 3.92851 157.228 3.85014C157.473 3.77176 157.752 3.73258 158.065 3.73258C158.487 3.73258 158.883 3.80605 159.256 3.95301C159.638 4.09996 159.971 4.31549 160.255 4.59959C160.549 4.87391 160.779 5.21679 160.946 5.62826C161.112 6.02993 161.195 6.48548 161.195 6.99491C161.195 7.51415 161.107 7.99419 160.931 8.43505C160.755 8.8759 160.495 9.25798 160.152 9.58127C159.819 9.90457 159.403 10.1593 158.903 10.3454C158.403 10.5218 157.835 10.6099 157.198 10.6099C156.699 10.6099 156.253 10.5561 155.861 10.4483C155.469 10.3405 155.121 10.1985 154.818 10.0221C154.524 9.83599 154.264 9.62536 154.039 9.39023C153.823 9.14531 153.637 8.8955 153.48 8.64078L155.082 7.37699C155.2 7.57293 155.322 7.75907 155.45 7.93541C155.587 8.11175 155.739 8.2685 155.905 8.40565C156.082 8.53301 156.273 8.63588 156.478 8.71425C156.694 8.78283 156.939 8.81712 157.213 8.81712C157.762 8.81712 158.173 8.67017 158.447 8.37626C158.732 8.07256 158.874 7.67089 158.874 7.17126V7.0537C158.874 6.57365 158.732 6.19647 158.447 5.92216C158.163 5.64785 157.771 5.5107 157.272 5.5107C156.86 5.5107 156.517 5.59397 156.243 5.76052C155.979 5.91727 155.778 6.07401 155.641 6.23076L153.833 5.98094L154.215 0.176337H160.578V2.10141ZM166.083 10.6099C164.712 10.6099 163.698 10.1446 163.041 9.21389C162.395 8.28319 162.071 6.98022 162.071 5.30497C162.071 3.62971 162.395 2.32674 163.041 1.39604C163.698 0.465342 164.712 -6.23494e-06 166.083 -6.23494e-06C167.455 -6.23494e-06 168.464 0.465342 169.11 1.39604C169.767 2.32674 170.095 3.62971 170.095 5.30497C170.095 6.98022 169.767 8.28319 169.11 9.21389C168.464 10.1446 167.455 10.6099 166.083 10.6099ZM166.083 8.8759C166.74 8.8759 167.195 8.64568 167.45 8.18523C167.714 7.72478 167.847 7.08309 167.847 6.26015V4.34978C167.847 3.52684 167.714 2.88515 167.45 2.4247C167.195 1.96425 166.74 1.73403 166.083 1.73403C165.427 1.73403 164.966 1.96425 164.702 2.4247C164.447 2.88515 164.32 3.52684 164.32 4.34978V6.26015C164.32 7.08309 164.447 7.72478 164.702 8.18523C164.966 8.64568 165.427 8.8759 166.083 8.8759ZM166.083 6.17198C165.74 6.17198 165.5 6.1034 165.363 5.96625C165.236 5.82909 165.172 5.66255 165.172 5.46661V5.14332C165.172 4.94738 165.236 4.78084 165.363 4.64368C165.5 4.50653 165.74 4.43795 166.083 4.43795C166.426 4.43795 166.661 4.50653 166.789 4.64368C166.926 4.78084 166.994 4.94738 166.994 5.14332V5.46661C166.994 5.66255 166.926 5.82909 166.789 5.96625C166.661 6.1034 166.426 6.17198 166.083 6.17198ZM180.164 2.85086H182.339V4.23221H182.442C182.628 3.78156 182.898 3.40928 183.25 3.11538C183.603 2.82147 184.083 2.67452 184.691 2.67452C185.112 2.67452 185.494 2.7529 185.837 2.90965C186.189 3.06639 186.488 3.30642 186.733 3.62971C186.988 3.95301 187.184 4.36447 187.321 4.86411C187.468 5.36375 187.541 5.95645 187.541 6.64223C187.541 7.32801 187.468 7.92071 187.321 8.42035C187.184 8.91999 186.988 9.33145 186.733 9.65475C186.488 9.97804 186.189 10.2181 185.837 10.3748C185.494 10.5316 185.112 10.6099 184.691 10.6099C184.083 10.6099 183.603 10.4679 183.25 10.1838C182.898 9.88987 182.628 9.51269 182.442 9.05224H182.339V13.3726H180.164V2.85086ZM183.75 8.91999C184.24 8.91999 184.617 8.77303 184.882 8.47913C185.146 8.17543 185.278 7.75907 185.278 7.23004V6.05442C185.278 5.52539 185.146 5.11393 184.882 4.82002C184.617 4.51632 184.24 4.36447 183.75 4.36447C183.368 4.36447 183.035 4.45754 182.751 4.64368C182.477 4.82982 182.339 5.12372 182.339 5.52539V7.75907C182.339 8.16073 182.477 8.45464 182.751 8.64078C183.035 8.82692 183.368 8.91999 183.75 8.91999ZM188.447 10.4336L191.283 6.58345L188.638 2.85086H191.121L191.93 4.07057L192.547 5.05515H192.664L193.296 4.07057L194.119 2.85086H196.397L193.752 6.46589L196.588 10.4336H194.09L193.135 9.00816L192.473 7.99419H192.356L191.709 9.00816L190.739 10.4336H188.447Z" fill="#FE6D73"/>
<path d="M220.752 2.10141H216.006L215.77 5.34905H215.903C216.01 5.11393 216.133 4.8984 216.27 4.70246C216.407 4.49673 216.569 4.32528 216.755 4.18813C216.941 4.04118 217.157 3.92851 217.402 3.85014C217.647 3.77176 217.926 3.73258 218.239 3.73258C218.66 3.73258 219.057 3.80605 219.43 3.95301C219.812 4.09996 220.145 4.31549 220.429 4.59959C220.723 4.87391 220.953 5.21679 221.119 5.62826C221.286 6.02993 221.369 6.48548 221.369 6.99491C221.369 7.51415 221.281 7.99419 221.105 8.43505C220.928 8.8759 220.669 9.25798 220.326 9.58127C219.993 9.90457 219.576 10.1593 219.077 10.3454C218.577 10.5218 218.009 10.6099 217.372 10.6099C216.873 10.6099 216.427 10.5561 216.035 10.4483C215.643 10.3405 215.295 10.1985 214.992 10.0221C214.698 9.83599 214.438 9.62536 214.213 9.39023C213.997 9.14531 213.811 8.8955 213.654 8.64078L215.256 7.37699C215.374 7.57293 215.496 7.75907 215.623 7.93541C215.761 8.11175 215.912 8.2685 216.079 8.40565C216.255 8.53301 216.446 8.63588 216.652 8.71425C216.868 8.78283 217.113 8.81712 217.387 8.81712C217.936 8.81712 218.347 8.67017 218.621 8.37626C218.905 8.07256 219.047 7.67089 219.047 7.17126V7.0537C219.047 6.57365 218.905 6.19647 218.621 5.92216C218.337 5.64785 217.945 5.5107 217.446 5.5107C217.034 5.5107 216.691 5.59397 216.417 5.76052C216.152 5.91727 215.952 6.07401 215.815 6.23076L214.007 5.98094L214.389 0.176337H220.752V2.10141ZM226.257 10.6099C224.886 10.6099 223.872 10.1446 223.215 9.21389C222.569 8.28319 222.245 6.98022 222.245 5.30497C222.245 3.62971 222.569 2.32674 223.215 1.39604C223.872 0.465342 224.886 -6.23494e-06 226.257 -6.23494e-06C227.629 -6.23494e-06 228.638 0.465342 229.284 1.39604C229.941 2.32674 230.269 3.62971 230.269 5.30497C230.269 6.98022 229.941 8.28319 229.284 9.21389C228.638 10.1446 227.629 10.6099 226.257 10.6099ZM226.257 8.8759C226.913 8.8759 227.369 8.64568 227.624 8.18523C227.888 7.72478 228.02 7.08309 228.02 6.26015V4.34978C228.02 3.52684 227.888 2.88515 227.624 2.4247C227.369 1.96425 226.913 1.73403 226.257 1.73403C225.601 1.73403 225.14 1.96425 224.876 2.4247C224.621 2.88515 224.494 3.52684 224.494 4.34978V6.26015C224.494 7.08309 224.621 7.72478 224.876 8.18523C225.14 8.64568 225.601 8.8759 226.257 8.8759ZM226.257 6.17198C225.914 6.17198 225.674 6.1034 225.537 5.96625C225.41 5.82909 225.346 5.66255 225.346 5.46661V5.14332C225.346 4.94738 225.41 4.78084 225.537 4.64368C225.674 4.50653 225.914 4.43795 226.257 4.43795C226.6 4.43795 226.835 4.50653 226.962 4.64368C227.1 4.78084 227.168 4.94738 227.168 5.14332V5.46661C227.168 5.66255 227.1 5.82909 226.962 5.96625C226.835 6.1034 226.6 6.17198 226.257 6.17198ZM240.338 2.85086H242.513V4.23221H242.616C242.802 3.78156 243.072 3.40928 243.424 3.11538C243.777 2.82147 244.257 2.67452 244.864 2.67452C245.286 2.67452 245.668 2.7529 246.011 2.90965C246.363 3.06639 246.662 3.30642 246.907 3.62971C247.162 3.95301 247.358 4.36447 247.495 4.86411C247.642 5.36375 247.715 5.95645 247.715 6.64223C247.715 7.32801 247.642 7.92071 247.495 8.42035C247.358 8.91999 247.162 9.33145 246.907 9.65475C246.662 9.97804 246.363 10.2181 246.011 10.3748C245.668 10.5316 245.286 10.6099 244.864 10.6099C244.257 10.6099 243.777 10.4679 243.424 10.1838C243.072 9.88987 242.802 9.51269 242.616 9.05224H242.513V13.3726H240.338V2.85086ZM243.924 8.91999C244.414 8.91999 244.791 8.77303 245.055 8.47913C245.32 8.17543 245.452 7.75907 245.452 7.23004V6.05442C245.452 5.52539 245.32 5.11393 245.055 4.82002C244.791 4.51632 244.414 4.36447 243.924 4.36447C243.542 4.36447 243.209 4.45754 242.925 4.64368C242.65 4.82982 242.513 5.12372 242.513 5.52539V7.75907C242.513 8.16073 242.65 8.45464 242.925 8.64078C243.209 8.82692 243.542 8.91999 243.924 8.91999ZM248.621 10.4336L251.457 6.58345L248.812 2.85086H251.295L252.103 4.07057L252.721 5.05515H252.838L253.47 4.07057L254.293 2.85086H256.571L253.926 6.46589L256.762 10.4336H254.264L253.308 9.00816L252.647 7.99419H252.53L251.883 9.00816L250.913 10.4336H248.621Z" fill="#FE6D73"/>
<path d="M318.565 257.498H313.818L313.583 260.746H313.715C313.823 260.51 313.945 260.295 314.083 260.099C314.22 259.893 314.381 259.722 314.567 259.585C314.754 259.438 314.969 259.325 315.214 259.247C315.459 259.168 315.738 259.129 316.052 259.129C316.473 259.129 316.87 259.203 317.242 259.349C317.624 259.496 317.957 259.712 318.241 259.996C318.535 260.27 318.765 260.613 318.932 261.025C319.099 261.426 319.182 261.882 319.182 262.391C319.182 262.911 319.094 263.391 318.917 263.832C318.741 264.272 318.481 264.654 318.138 264.978C317.805 265.301 317.389 265.556 316.889 265.742C316.39 265.918 315.821 266.006 315.185 266.006C314.685 266.006 314.239 265.953 313.847 265.845C313.456 265.737 313.108 265.595 312.804 265.419C312.51 265.232 312.251 265.022 312.025 264.787C311.81 264.542 311.624 264.292 311.467 264.037L313.069 262.773C313.186 262.969 313.309 263.156 313.436 263.332C313.573 263.508 313.725 263.665 313.892 263.802C314.068 263.929 314.259 264.032 314.465 264.111C314.68 264.179 314.925 264.214 315.199 264.214C315.748 264.214 316.159 264.067 316.434 263.773C316.718 263.469 316.86 263.067 316.86 262.568V262.45C316.86 261.97 316.718 261.593 316.434 261.319C316.15 261.044 315.758 260.907 315.258 260.907C314.847 260.907 314.504 260.99 314.23 261.157C313.965 261.314 313.764 261.47 313.627 261.627L311.819 261.377L312.202 255.573H318.565V257.498ZM324.07 266.006C322.698 266.006 321.684 265.541 321.028 264.61C320.381 263.68 320.058 262.377 320.058 260.701C320.058 259.026 320.381 257.723 321.028 256.793C321.684 255.862 322.698 255.396 324.07 255.396C325.441 255.396 326.45 255.862 327.097 256.793C327.753 257.723 328.081 259.026 328.081 260.701C328.081 262.377 327.753 263.68 327.097 264.61C326.45 265.541 325.441 266.006 324.07 266.006ZM324.07 264.272C324.726 264.272 325.181 264.042 325.436 263.582C325.701 263.121 325.833 262.48 325.833 261.657V259.746C325.833 258.923 325.701 258.282 325.436 257.821C325.181 257.361 324.726 257.131 324.07 257.131C323.413 257.131 322.953 257.361 322.688 257.821C322.433 258.282 322.306 258.923 322.306 259.746V261.657C322.306 262.48 322.433 263.121 322.688 263.582C322.953 264.042 323.413 264.272 324.07 264.272ZM324.07 261.568C323.727 261.568 323.487 261.5 323.349 261.363C323.222 261.226 323.158 261.059 323.158 260.863V260.54C323.158 260.344 323.222 260.177 323.349 260.04C323.487 259.903 323.727 259.834 324.07 259.834C324.412 259.834 324.648 259.903 324.775 260.04C324.912 260.177 324.981 260.344 324.981 260.54V260.863C324.981 261.059 324.912 261.226 324.775 261.363C324.648 261.5 324.412 261.568 324.07 261.568ZM338.151 258.247H340.326V259.629H340.429C340.615 259.178 340.884 258.806 341.237 258.512C341.589 258.218 342.07 258.071 342.677 258.071C343.098 258.071 343.48 258.149 343.823 258.306C344.176 258.463 344.475 258.703 344.72 259.026C344.974 259.349 345.17 259.761 345.307 260.261C345.454 260.76 345.528 261.353 345.528 262.039C345.528 262.724 345.454 263.317 345.307 263.817C345.17 264.316 344.974 264.728 344.72 265.051C344.475 265.375 344.176 265.615 343.823 265.771C343.48 265.928 343.098 266.006 342.677 266.006C342.07 266.006 341.589 265.864 341.237 265.58C340.884 265.286 340.615 264.909 340.429 264.449H340.326V268.769H338.151V258.247ZM341.736 264.316C342.226 264.316 342.603 264.17 342.868 263.876C343.132 263.572 343.265 263.156 343.265 262.627V261.451C343.265 260.922 343.132 260.51 342.868 260.217C342.603 259.913 342.226 259.761 341.736 259.761C341.354 259.761 341.021 259.854 340.737 260.04C340.463 260.226 340.326 260.52 340.326 260.922V263.156C340.326 263.557 340.463 263.851 340.737 264.037C341.021 264.223 341.354 264.316 341.736 264.316ZM346.433 265.83L349.269 261.98L346.624 258.247H349.108L349.916 259.467L350.533 260.452H350.651L351.283 259.467L352.105 258.247H354.383L351.738 261.862L354.574 265.83H352.076L351.121 264.405L350.46 263.391H350.342L349.695 264.405L348.726 265.83H346.433Z" fill="#FE6D73"/>
<path d="M1080.91 437.977L1053.51 602.434H1011.25L1038.66 437.977H980.985L986.695 403.145H1144.3L1138.59 437.977H1080.91ZM1212.71 568.743C1222.42 568.743 1229.65 566.744 1234.41 562.747C1239.17 558.75 1242.31 552.469 1243.83 543.903L1244.69 539.049C1245.07 537.146 1245.35 535.243 1245.54 533.339C1245.74 531.436 1245.83 529.532 1245.83 527.629C1245.83 521.157 1244.02 516.399 1240.41 513.353C1236.98 510.308 1230.98 508.785 1222.42 508.785H1196.44L1186.44 568.743H1212.71ZM1171.88 403.145H1214.14L1202.15 475.094H1235.55C1244.31 475.094 1252.02 476.427 1258.68 479.091C1265.53 481.756 1271.24 485.468 1275.81 490.227C1280.38 494.795 1283.8 500.315 1286.09 506.786C1288.56 513.258 1289.8 520.206 1289.8 527.629C1289.8 539.24 1288.09 549.709 1284.66 559.035C1281.42 568.172 1276.67 575.976 1270.38 582.448C1264.29 588.919 1256.87 593.868 1248.11 597.294C1239.36 600.721 1229.56 602.434 1218.71 602.434H1138.76L1171.88 403.145Z" fill="#FE6D73"/>
<path d="M34.9944 47.1447H71.5402V214.17H94.3813V47.1447H130.927V214.17H153.768V47.1447H190.314V246.434H34.9944V47.1447ZM213.9 47.1447H254.158V121.093L250.732 174.484H253.587L313.545 47.1447H353.802V246.434H313.545V172.485L316.971 119.094H314.116L254.158 246.434H213.9V47.1447Z" fill="#FE6D73"/>
<path d="M175.746 297.504C174.575 296.332 172.675 296.332 171.504 297.504L152.412 316.596C151.24 317.767 151.24 319.667 152.412 320.838C153.583 322.01 155.483 322.01 156.654 320.838L173.625 303.868L190.596 320.838C191.767 322.01 193.667 322.01 194.838 320.838C196.01 319.667 196.01 317.767 194.838 316.596L175.746 297.504ZM173.625 299.625L170.625 299.625L170.625 516.625L173.625 516.625L176.625 516.625L176.625 299.625L173.625 299.625Z" fill="#FE6D73"/>
<path d="M961.122 515.554C962.293 514.383 962.293 512.483 961.121 511.312L942.024 492.225C940.852 491.053 938.953 491.054 937.782 492.226C936.61 493.397 936.611 495.297 937.783 496.468L954.757 513.435L937.791 530.409C936.62 531.581 936.62 533.481 937.792 534.652C938.964 535.823 940.863 535.823 942.035 534.651L961.122 515.554ZM959 513.434L958.999 510.434L171.624 510.625L171.625 513.625L171.626 516.625L959.001 516.434L959 513.434Z" fill="#FE6D73"/>
<line x1="1.5" y1="626.934" x2="1332.5" y2="626.934" stroke="#FE6D73" stroke-width="3" stroke-linecap="round" stroke-dasharray="33 33"/>
<line x1="317.499" y1="278.932" x2="1332.5" y2="277.927" stroke="#FE6D73" stroke-width="3" stroke-linecap="round" stroke-dasharray="33 33"/>
<line x1="1.5" y1="24.9336" x2="351.5" y2="24.9336" stroke="#FE6D73" stroke-width="3" stroke-linecap="round" stroke-dasharray="33 33"/>
<line x1="1332.5" y1="628.434" x2="1332.5" y2="277.434" stroke="#FE6D73" stroke-width="3" stroke-dasharray="33 33"/>
<line x1="1.5" y1="626.934" x2="1.5" y2="25.9336" stroke="#FE6D73" stroke-width="3" stroke-linecap="round" stroke-dasharray="33 33"/>
</svg>
