<svg width="1345" height="528" viewBox="0 0 1345 528" fill="none" xmlns="http://www.w3.org/2000/svg">
<path d="M873.239 459.309C957.258 484.714 1197.97 488.662 1307.82 487.46L1325.66 376.299L1218.3 336.004L1324.71 320.294L1339.72 205.235C1260.87 190.526 1086.49 157.997 1019.73 145.555C936.272 130.003 962.139 1.43306 951.139 6.66246C926.182 18.5264 690.334 65.7827 567.949 79.821L7.11605 88.1117L7.23139 449.899L343.854 444.202C485.308 438.652 789.221 433.903 873.239 459.309Z" fill="#227C9D" stroke="#227C9D" stroke-width="3"/>
<path d="M903.454 468.137L1023.14 142.117" stroke="#FEF9EF" stroke-width="3"/>
<path d="M837.193 453.901L878.159 20.3431" stroke="#FEF9EF" stroke-width="3"/>
<path d="M508.505 442.287L505.137 78.1172" stroke="#FEF9EF" stroke-width="3"/>
<path d="M455.52 443.269L448.137 78.1172" stroke="#FEF9EF" stroke-width="3"/>
<path d="M46.3815 449.133L46.1373 85.1172" stroke="#FEF9EF" stroke-width="3"/>
<path d="M1324.14 413.615L0.301126 412.28" stroke="#FEF9EF" stroke-width="3"/>
<path d="M1330.99 376.896L5.13924 376.117" stroke="#FEF9EF" stroke-width="3"/>
<path d="M1338.14 237.117L4.14128 210.117" stroke="#FEF9EF" stroke-width="3"/>
<path d="M1342.14 209.117L504.977 189.719" stroke="#FEF9EF" stroke-width="3"/>
<line y1="-1.5" x2="28.9415" y2="-1.5" transform="matrix(0.99988 -0.015511 0.0161613 0.999869 47.1373 102.187)" stroke="#FEF9EF" stroke-width="3"/>
<line y1="-1.5" x2="28.9415" y2="-1.5" transform="matrix(0.999883 -0.0153177 0.0163653 0.999866 307.582 98.1972)" stroke="#FEF9EF" stroke-width="3"/>
<line y1="-1.5" x2="28.9415" y2="-1.5" transform="matrix(0.999883 -0.0153177 0.0163653 0.999866 381.995 97.0585)" stroke="#FEF9EF" stroke-width="3"/>
<line y1="-1.5" x2="28.9415" y2="-1.5" transform="matrix(0.999883 -0.0153177 0.0163653 0.999866 195.962 99.9081)" stroke="#FEF9EF" stroke-width="3"/>
<line y1="-1.5" x2="28.9415" y2="-1.5" transform="matrix(0.999883 -0.0153177 0.0163653 0.999866 121.55 101.049)" stroke="#FEF9EF" stroke-width="3"/>
<line y1="-1.5" x2="28.9415" y2="-1.5" transform="matrix(0.999883 -0.0153177 0.0163653 0.999866 270.375 98.7675)" stroke="#FEF9EF" stroke-width="3"/>
<line y1="-1.5" x2="28.9415" y2="-1.5" transform="matrix(0.999883 -0.0153177 0.0163653 0.999866 84.3446 101.617)" stroke="#FEF9EF" stroke-width="3"/>
<line y1="-1.5" x2="28.9415" y2="-1.5" transform="matrix(0.999883 -0.0153177 0.0163653 0.999866 344.788 97.6288)" stroke="#FEF9EF" stroke-width="3"/>
<line y1="-1.5" x2="28.9415" y2="-1.5" transform="matrix(0.999883 -0.0153177 0.0163653 0.999866 419.2 96.4882)" stroke="#FEF9EF" stroke-width="3"/>
<line y1="-1.5" x2="28.9415" y2="-1.5" transform="matrix(0.999883 -0.0153177 0.0163653 0.999866 158.757 100.478)" stroke="#FEF9EF" stroke-width="3"/>
<line y1="-1.5" x2="28.9415" y2="-1.5" transform="matrix(0.999883 -0.0153177 0.0163653 0.999866 233.17 99.3378)" stroke="#FEF9EF" stroke-width="3"/>
<path d="M1287.4 158.367V177.117H1284.88V158.367H1277.89V156.177H1294.39V158.367H1287.4ZM1303.23 165.057C1304.69 165.057 1305.78 164.737 1306.5 164.097C1307.24 163.437 1307.61 162.597 1307.61 161.577V161.367C1307.61 160.247 1307.25 159.407 1306.53 158.847C1305.83 158.287 1304.91 158.007 1303.77 158.007C1302.65 158.007 1301.74 158.257 1301.04 158.757C1300.36 159.237 1299.8 159.877 1299.36 160.677L1297.47 159.237C1297.73 158.817 1298.05 158.407 1298.43 158.007C1298.81 157.587 1299.25 157.217 1299.75 156.897C1300.27 156.577 1300.86 156.317 1301.52 156.117C1302.2 155.917 1302.97 155.817 1303.83 155.817C1304.73 155.817 1305.57 155.937 1306.35 156.177C1307.13 156.397 1307.81 156.737 1308.39 157.197C1308.97 157.637 1309.42 158.187 1309.74 158.847C1310.08 159.507 1310.25 160.257 1310.25 161.097C1310.25 161.777 1310.14 162.387 1309.92 162.927C1309.72 163.467 1309.43 163.937 1309.05 164.337C1308.69 164.737 1308.26 165.077 1307.76 165.357C1307.26 165.637 1306.73 165.847 1306.17 165.987V166.107C1306.75 166.227 1307.31 166.427 1307.85 166.707C1308.39 166.967 1308.87 167.317 1309.29 167.757C1309.71 168.177 1310.04 168.697 1310.28 169.317C1310.54 169.917 1310.67 170.607 1310.67 171.387C1310.67 172.287 1310.49 173.117 1310.13 173.877C1309.79 174.617 1309.3 175.257 1308.66 175.797C1308.04 176.317 1307.28 176.727 1306.38 177.027C1305.5 177.327 1304.52 177.477 1303.44 177.477C1302.52 177.477 1301.7 177.377 1300.98 177.177C1300.28 176.977 1299.65 176.707 1299.09 176.367C1298.55 176.027 1298.07 175.647 1297.65 175.227C1297.25 174.807 1296.89 174.367 1296.57 173.907L1298.46 172.467C1298.74 172.887 1299.03 173.267 1299.33 173.607C1299.63 173.947 1299.97 174.247 1300.35 174.507C1300.75 174.747 1301.2 174.937 1301.7 175.077C1302.2 175.217 1302.78 175.287 1303.44 175.287C1304.92 175.287 1306.05 174.947 1306.83 174.267C1307.63 173.587 1308.03 172.617 1308.03 171.357V171.117C1308.03 169.877 1307.64 168.917 1306.86 168.237C1306.1 167.557 1304.95 167.217 1303.41 167.217H1300.92V165.057H1303.23ZM1315.67 177.117V174.927H1321.67V158.037H1321.46L1316.18 162.957L1314.71 161.367L1320.26 156.177H1324.19V174.927H1329.71V177.117H1315.67Z" fill="#227C9D"/>
<path d="M1266.4 508.367V527.117H1263.88V508.367H1256.89V506.177H1273.39V508.367H1266.4ZM1290.24 527.117H1276.26V524.537L1283.25 518.237C1284.27 517.317 1285.11 516.377 1285.77 515.417C1286.43 514.437 1286.76 513.407 1286.76 512.327V511.967C1286.76 510.707 1286.43 509.737 1285.77 509.057C1285.11 508.357 1284.13 508.007 1282.83 508.007C1281.55 508.007 1280.56 508.337 1279.86 508.997C1279.18 509.637 1278.67 510.497 1278.33 511.577L1276.08 510.737C1276.28 510.117 1276.55 509.517 1276.89 508.937C1277.25 508.337 1277.7 507.807 1278.24 507.347C1278.78 506.887 1279.43 506.517 1280.19 506.237C1280.97 505.957 1281.87 505.817 1282.89 505.817C1283.93 505.817 1284.85 505.967 1285.65 506.267C1286.47 506.567 1287.15 506.987 1287.69 507.527C1288.25 508.067 1288.67 508.707 1288.95 509.447C1289.25 510.187 1289.4 510.997 1289.4 511.877C1289.4 512.677 1289.28 513.427 1289.04 514.127C1288.82 514.827 1288.5 515.497 1288.08 516.137C1287.68 516.777 1287.19 517.407 1286.61 518.027C1286.05 518.627 1285.42 519.227 1284.72 519.827L1278.87 524.927H1290.24V527.117ZM1294.67 527.117V524.927H1300.67V508.037H1300.46L1295.18 512.957L1293.71 511.367L1299.26 506.177H1303.19V524.927H1308.71V527.117H1294.67Z" fill="#227C9D"/>
<path d="M515.54 467.177H518.06V476.417H521.75L526.19 467.177H528.86L524.87 475.457C524.53 476.157 524.21 476.647 523.91 476.927C523.61 477.187 523.28 477.347 522.92 477.407V477.557C523.36 477.657 523.73 477.867 524.03 478.187C524.33 478.487 524.66 479.047 525.02 479.867L527.72 485.927H529.67V488.117H527.78C527.18 488.117 526.65 487.947 526.19 487.607C525.73 487.247 525.33 486.677 524.99 485.897L521.75 478.577H518.06V488.117H515.54V467.177ZM547.238 488.117H533.258V485.537L540.248 479.237C541.268 478.317 542.108 477.377 542.768 476.417C543.428 475.437 543.758 474.407 543.758 473.327V472.967C543.758 471.707 543.428 470.737 542.768 470.057C542.108 469.357 541.128 469.007 539.828 469.007C538.548 469.007 537.558 469.337 536.858 469.997C536.178 470.637 535.668 471.497 535.328 472.577L533.078 471.737C533.278 471.117 533.548 470.517 533.888 469.937C534.248 469.337 534.698 468.807 535.238 468.347C535.778 467.887 536.428 467.517 537.188 467.237C537.968 466.957 538.868 466.817 539.888 466.817C540.928 466.817 541.848 466.967 542.648 467.267C543.468 467.567 544.148 467.987 544.688 468.527C545.248 469.067 545.668 469.707 545.948 470.447C546.248 471.187 546.398 471.997 546.398 472.877C546.398 473.677 546.278 474.427 546.038 475.127C545.818 475.827 545.498 476.497 545.078 477.137C544.678 477.777 544.188 478.407 543.608 479.027C543.048 479.627 542.418 480.227 541.718 480.827L535.868 485.927H547.238V488.117Z" fill="#227C9D"/>
<path d="M844.31 493.927H846.23L848.69 488.797C848.99 488.157 849.3 487.707 849.62 487.447C849.94 487.167 850.34 486.977 850.82 486.877V486.727C848.98 486.627 847.61 486.087 846.71 485.107C845.81 484.107 845.36 482.777 845.36 481.117C845.36 479.297 845.86 477.857 846.86 476.797C847.88 475.717 849.33 475.177 851.21 475.177H858.56V496.117H856.04V487.117H852.26L848.96 493.987C848.56 494.807 848.14 495.367 847.7 495.667C847.28 495.967 846.78 496.117 846.2 496.117H844.31V493.927ZM856.04 477.367H851.27C850.27 477.367 849.48 477.637 848.9 478.177C848.32 478.697 848.03 479.527 848.03 480.667V481.657C848.03 482.797 848.32 483.637 848.9 484.177C849.48 484.697 850.27 484.957 851.27 484.957H856.04V477.367ZM870.158 496.477C869.058 496.477 868.068 496.297 867.188 495.937C866.308 495.557 865.558 495.027 864.938 494.347C864.338 493.647 863.868 492.797 863.528 491.797C863.208 490.797 863.048 489.677 863.048 488.437C863.048 486.877 863.278 485.417 863.738 484.057C864.218 482.677 864.818 481.427 865.538 480.307C866.278 479.167 867.098 478.167 867.998 477.307C868.898 476.427 869.778 475.717 870.638 475.177H873.878C872.738 475.997 871.718 476.797 870.818 477.577C869.938 478.357 869.158 479.177 868.478 480.037C867.798 480.877 867.228 481.787 866.768 482.767C866.308 483.727 865.928 484.817 865.628 486.037L865.778 486.097C866.278 485.237 866.938 484.527 867.758 483.967C868.578 483.387 869.638 483.097 870.938 483.097C871.858 483.097 872.698 483.247 873.458 483.547C874.218 483.847 874.878 484.277 875.438 484.837C875.998 485.397 876.428 486.077 876.728 486.877C877.048 487.677 877.208 488.567 877.208 489.547C877.208 490.567 877.038 491.507 876.698 492.367C876.358 493.207 875.878 493.937 875.258 494.557C874.658 495.157 873.918 495.627 873.038 495.967C872.178 496.307 871.218 496.477 870.158 496.477ZM870.128 494.347C871.568 494.347 872.678 493.957 873.458 493.177C874.258 492.397 874.658 491.297 874.658 489.877V489.637C874.658 488.217 874.258 487.117 873.458 486.337C872.678 485.557 871.568 485.167 870.128 485.167C868.688 485.167 867.568 485.557 866.768 486.337C865.988 487.117 865.598 488.217 865.598 489.637V489.877C865.598 491.297 865.988 492.397 866.768 493.177C867.568 493.957 868.688 494.347 870.128 494.347Z" fill="#227C9D"/>
<path d="M808.31 69.9272H810.23L812.69 64.7972C812.99 64.1572 813.3 63.7072 813.62 63.4472C813.94 63.1672 814.34 62.9772 814.82 62.8772V62.7272C812.98 62.6272 811.61 62.0872 810.71 61.1072C809.81 60.1072 809.36 58.7772 809.36 57.1172C809.36 55.2972 809.86 53.8572 810.86 52.7972C811.88 51.7172 813.33 51.1772 815.21 51.1772H822.56V72.1172H820.04V63.1172H816.26L812.96 69.9872C812.56 70.8072 812.14 71.3672 811.7 71.6672C811.28 71.9672 810.78 72.1172 810.2 72.1172H808.31V69.9272ZM820.04 53.3672H815.27C814.27 53.3672 813.48 53.6372 812.9 54.1772C812.32 54.6972 812.03 55.5272 812.03 56.6672V57.6572C812.03 58.7972 812.32 59.6372 812.9 60.1772C813.48 60.6972 814.27 60.9572 815.27 60.9572H820.04V53.3672ZM833.228 60.0572C834.688 60.0572 835.778 59.7372 836.498 59.0972C837.238 58.4372 837.608 57.5972 837.608 56.5772V56.3672C837.608 55.2472 837.248 54.4072 836.528 53.8472C835.828 53.2872 834.908 53.0072 833.768 53.0072C832.648 53.0072 831.738 53.2572 831.038 53.7572C830.358 54.2372 829.798 54.8772 829.358 55.6772L827.468 54.2372C827.728 53.8172 828.048 53.4072 828.428 53.0072C828.808 52.5872 829.248 52.2172 829.748 51.8972C830.268 51.5772 830.858 51.3172 831.518 51.1172C832.198 50.9172 832.968 50.8172 833.828 50.8172C834.728 50.8172 835.568 50.9372 836.348 51.1772C837.128 51.3972 837.808 51.7372 838.388 52.1972C838.968 52.6372 839.418 53.1872 839.738 53.8472C840.078 54.5072 840.248 55.2572 840.248 56.0972C840.248 56.7772 840.138 57.3872 839.918 57.9272C839.718 58.4672 839.428 58.9372 839.048 59.3372C838.688 59.7372 838.258 60.0772 837.758 60.3572C837.258 60.6372 836.728 60.8472 836.168 60.9872V61.1072C836.748 61.2272 837.308 61.4272 837.848 61.7072C838.388 61.9672 838.868 62.3172 839.288 62.7572C839.708 63.1772 840.038 63.6972 840.278 64.3172C840.538 64.9172 840.668 65.6072 840.668 66.3872C840.668 67.2872 840.488 68.1172 840.128 68.8772C839.788 69.6172 839.298 70.2572 838.658 70.7972C838.038 71.3172 837.278 71.7272 836.378 72.0272C835.498 72.3272 834.518 72.4772 833.438 72.4772C832.518 72.4772 831.698 72.3772 830.978 72.1772C830.278 71.9772 829.648 71.7072 829.088 71.3672C828.548 71.0272 828.068 70.6472 827.648 70.2272C827.248 69.8072 826.888 69.3672 826.568 68.9072L828.458 67.4672C828.738 67.8872 829.028 68.2672 829.328 68.6072C829.628 68.9472 829.968 69.2472 830.348 69.5072C830.748 69.7472 831.198 69.9372 831.698 70.0772C832.198 70.2172 832.778 70.2872 833.438 70.2872C834.918 70.2872 836.048 69.9472 836.828 69.2672C837.628 68.5872 838.028 67.6172 838.028 66.3572V66.1172C838.028 64.8772 837.638 63.9172 836.858 63.2372C836.098 62.5572 834.948 62.2172 833.408 62.2172H830.918V60.0572H833.228ZM845.667 72.1172V69.9272H851.667V53.0372H851.457L846.177 57.9572L844.707 56.3672L850.257 51.1772H854.187V69.9272H859.707V72.1172H845.667Z" fill="#FEF9EF"/>
<path d="M518.54 90.1772H521.06V99.4172H524.75L529.19 90.1772H531.86L527.87 98.4572C527.53 99.1572 527.21 99.6472 526.91 99.9272C526.61 100.187 526.28 100.347 525.92 100.407V100.557C526.36 100.657 526.73 100.867 527.03 101.187C527.33 101.487 527.66 102.047 528.02 102.867L530.72 108.927H532.67V111.117H530.78C530.18 111.117 529.65 110.947 529.19 110.607C528.73 110.247 528.33 109.677 527.99 108.897L524.75 101.577H521.06V111.117H518.54V90.1772ZM542.228 99.0572C543.688 99.0572 544.778 98.7372 545.498 98.0972C546.238 97.4372 546.608 96.5972 546.608 95.5772V95.3672C546.608 94.2472 546.248 93.4072 545.528 92.8472C544.828 92.2872 543.908 92.0072 542.768 92.0072C541.648 92.0072 540.738 92.2572 540.038 92.7572C539.358 93.2372 538.798 93.8772 538.358 94.6772L536.468 93.2372C536.728 92.8172 537.048 92.4072 537.428 92.0072C537.808 91.5872 538.248 91.2172 538.748 90.8972C539.268 90.5772 539.858 90.3172 540.518 90.1172C541.198 89.9172 541.968 89.8172 542.828 89.8172C543.728 89.8172 544.568 89.9372 545.348 90.1772C546.128 90.3972 546.808 90.7372 547.388 91.1972C547.968 91.6372 548.418 92.1872 548.738 92.8472C549.078 93.5072 549.248 94.2572 549.248 95.0972C549.248 95.7772 549.138 96.3872 548.918 96.9272C548.718 97.4672 548.428 97.9372 548.048 98.3372C547.688 98.7372 547.258 99.0772 546.758 99.3572C546.258 99.6372 545.728 99.8472 545.168 99.9872V100.107C545.748 100.227 546.308 100.427 546.848 100.707C547.388 100.967 547.868 101.317 548.288 101.757C548.708 102.177 549.038 102.697 549.278 103.317C549.538 103.917 549.668 104.607 549.668 105.387C549.668 106.287 549.488 107.117 549.128 107.877C548.788 108.617 548.298 109.257 547.658 109.797C547.038 110.317 546.278 110.727 545.378 111.027C544.498 111.327 543.518 111.477 542.438 111.477C541.518 111.477 540.698 111.377 539.978 111.177C539.278 110.977 538.648 110.707 538.088 110.367C537.548 110.027 537.068 109.647 536.648 109.227C536.248 108.807 535.888 108.367 535.568 107.907L537.458 106.467C537.738 106.887 538.028 107.267 538.328 107.607C538.628 107.947 538.968 108.247 539.348 108.507C539.748 108.747 540.198 108.937 540.698 109.077C541.198 109.217 541.778 109.287 542.438 109.287C543.918 109.287 545.048 108.947 545.828 108.267C546.628 107.587 547.028 106.617 547.028 105.357V105.117C547.028 103.877 546.638 102.917 545.858 102.237C545.098 101.557 543.948 101.217 542.408 101.217H539.918V99.0572H542.228Z" fill="#FEF9EF"/>
</svg>
