<svg width="993" height="620" viewBox="0 0 993 620" fill="none" xmlns="http://www.w3.org/2000/svg">
<line x1="1.5" y1="-1.5" x2="194.373" y2="-1.5" transform="matrix(0.782474 -0.622683 0.569754 0.821815 192 435.967)" stroke="#227C9D" stroke-width="3" stroke-linecap="round" stroke-dasharray="29 29"/>
<line x1="568.67" y1="206.687" x2="719.253" y2="131.33" stroke="#227C9D" stroke-width="3" stroke-linecap="round" stroke-dasharray="29 29"/>
<rect x="836.902" width="120.3" height="243.902" rx="5.8902" transform="rotate(90 836.902 0)" fill="#227C9D"/>
<path d="M688.857 35.7721L676.214 35.7721L676.214 49.5636C676.214 56.6126 675.946 62.7422 675.41 67.9523C674.873 73.0858 674.107 77.4914 673.111 81.1692C672.115 84.8469 670.966 87.8734 669.663 90.2486C668.361 92.6238 666.982 94.5393 665.526 95.9951C663.151 98.3703 660.584 100.056 657.826 101.052C655.144 102.048 651.773 102.546 647.712 102.546L644.379 102.546L644.379 87.7201L652.309 87.7201C653.535 86.4176 654.608 84.732 655.527 82.6633C656.523 80.5179 657.366 77.8362 658.055 74.6182C658.745 71.4002 659.281 67.5692 659.664 63.1253C660.048 58.6047 660.239 53.2797 660.239 47.1501L660.239 21.6358L706.211 21.6358L706.211 101.856L688.857 101.856L688.857 35.7721Z" fill="#FEF9EF"/>
<path d="M736.105 35.7721L748.747 35.7721L748.747 49.5636C748.747 56.6126 749.016 62.7422 749.552 67.9523C750.088 73.0858 750.855 77.4914 751.851 81.1692C752.847 84.8469 753.996 87.8734 755.298 90.2486C756.601 92.6238 757.98 94.5393 759.436 95.9951C761.811 98.3703 764.378 100.056 767.136 101.052C769.818 102.048 773.189 102.546 777.25 102.546L780.583 102.546L780.583 87.7201L772.653 87.7201C771.427 86.4176 770.354 84.732 769.435 82.6633C768.439 80.5179 767.596 77.8362 766.906 74.6182C766.217 71.4002 765.68 67.5692 765.297 63.1253C764.914 58.6047 764.723 53.2797 764.723 47.1501L764.723 21.6358L718.751 21.6358L718.751 101.856L736.105 101.856L736.105 35.7721Z" fill="#FEF9EF"/>
<rect x="243.902" y="396" width="120.3" height="243.902" rx="5.8902" transform="rotate(90 243.902 396)" fill="#227C9D"/>
<path d="M133.535 461.257L134.454 438.846L133.42 438.846L118.479 480.105L103.538 438.846L102.504 438.846L103.423 461.257L103.423 497L88.4822 497L88.4822 416.779L108.825 416.779L118.709 443.788L119.628 443.788L129.512 416.779L148.475 416.779L148.475 497L133.535 497L133.535 461.257Z" fill="#FEF9EF"/>
<path d="M863 170C875 187.571 923.333 196.963 946 199.463L941.5 598.55H784C752.8 598.55 725.667 608.55 716 613.55C708.167 561.765 689 460.343 689 460.343C735 450.058 754 370.347 754 338.742C754 307.136 746 199.463 746 199.463L863 170Z" stroke="#FE6D73" stroke-width="3"/>
<path d="M824.5 180.714C836.167 195.177 893.4 237.068 945 235.354" stroke="#FE6D73" stroke-width="3" stroke-dasharray="12 12"/>
<path d="M691 463.021L940 463.021" stroke="#FE6D73" stroke-width="3"/>
<path d="M748 196.784L825 462.486" stroke="#FE6D73" stroke-width="3"/>
<path d="M911.11 356.349H897.13V353.769L904.12 347.469C905.14 346.549 905.98 345.609 906.64 344.649C907.3 343.669 907.63 342.639 907.63 341.559V341.199C907.63 339.939 907.3 338.969 906.64 338.289C905.98 337.589 905 337.239 903.7 337.239C902.42 337.239 901.43 337.569 900.73 338.229C900.05 338.869 899.54 339.729 899.2 340.809L896.95 339.969C897.15 339.349 897.42 338.749 897.76 338.169C898.12 337.569 898.57 337.039 899.11 336.579C899.65 336.119 900.3 335.749 901.06 335.469C901.84 335.189 902.74 335.049 903.76 335.049C904.8 335.049 905.72 335.199 906.52 335.499C907.34 335.799 908.02 336.219 908.56 336.759C909.12 337.299 909.54 337.939 909.82 338.679C910.12 339.419 910.27 340.229 910.27 341.109C910.27 341.909 910.15 342.659 909.91 343.359C909.69 344.059 909.37 344.729 908.95 345.369C908.55 346.009 908.06 346.639 907.48 347.259C906.92 347.859 906.29 348.459 905.59 349.059L899.74 354.159H911.11V356.349ZM928.018 337.599H918.658L918.058 345.609H918.268C918.788 344.909 919.368 344.359 920.008 343.959C920.648 343.539 921.528 343.329 922.648 343.329C923.568 343.329 924.408 343.479 925.168 343.779C925.948 344.059 926.618 344.479 927.178 345.039C927.738 345.599 928.178 346.279 928.498 347.079C928.818 347.859 928.978 348.759 928.978 349.779C928.978 350.799 928.818 351.739 928.498 352.599C928.178 353.439 927.708 354.169 927.088 354.789C926.468 355.389 925.718 355.859 924.838 356.199C923.958 356.539 922.958 356.709 921.838 356.709C920.958 356.709 920.168 356.609 919.468 356.409C918.788 356.209 918.178 355.939 917.638 355.599C917.118 355.259 916.658 354.879 916.258 354.459C915.858 354.039 915.498 353.599 915.178 353.139L917.068 351.699C917.348 352.119 917.628 352.499 917.908 352.839C918.208 353.179 918.548 353.479 918.928 353.739C919.308 353.979 919.738 354.169 920.218 354.309C920.698 354.449 921.258 354.519 921.898 354.519C923.338 354.519 924.438 354.129 925.198 353.349C925.978 352.569 926.368 351.489 926.368 350.109V349.869C926.368 348.489 925.978 347.409 925.198 346.629C924.418 345.849 923.298 345.459 921.838 345.459C920.838 345.459 920.058 345.629 919.498 345.969C918.958 346.309 918.458 346.729 917.998 347.229L915.868 346.929L916.618 335.409H928.018V337.599Z" fill="#FE6D73"/>
<path d="M931.03 205.82H921.67L921.07 213.83H921.28C921.8 213.13 922.38 212.58 923.02 212.18C923.66 211.76 924.54 211.55 925.66 211.55C926.58 211.55 927.42 211.7 928.18 212C928.96 212.28 929.63 212.7 930.19 213.26C930.75 213.82 931.19 214.5 931.51 215.3C931.83 216.08 931.99 216.98 931.99 218C931.99 219.02 931.83 219.96 931.51 220.82C931.19 221.66 930.72 222.39 930.1 223.01C929.48 223.61 928.73 224.08 927.85 224.42C926.97 224.76 925.97 224.93 924.85 224.93C923.97 224.93 923.18 224.83 922.48 224.63C921.8 224.43 921.19 224.16 920.65 223.82C920.13 223.48 919.67 223.1 919.27 222.68C918.87 222.26 918.51 221.82 918.19 221.36L920.08 219.92C920.36 220.34 920.64 220.72 920.92 221.06C921.22 221.4 921.56 221.7 921.94 221.96C922.32 222.2 922.75 222.39 923.23 222.53C923.71 222.67 924.27 222.74 924.91 222.74C926.35 222.74 927.45 222.35 928.21 221.57C928.99 220.79 929.38 219.71 929.38 218.33V218.09C929.38 216.71 928.99 215.63 928.21 214.85C927.43 214.07 926.31 213.68 924.85 213.68C923.85 213.68 923.07 213.85 922.51 214.19C921.97 214.53 921.47 214.95 921.01 215.45L918.88 215.15L919.63 203.63H931.03V205.82Z" fill="#FE6D73"/>
<path d="M922.1 577.849C923.56 577.849 924.65 577.529 925.37 576.889C926.11 576.229 926.48 575.389 926.48 574.369V574.159C926.48 573.039 926.12 572.199 925.4 571.639C924.7 571.079 923.78 570.799 922.64 570.799C921.52 570.799 920.61 571.049 919.91 571.549C919.23 572.029 918.67 572.669 918.23 573.469L916.34 572.029C916.6 571.609 916.92 571.199 917.3 570.799C917.68 570.379 918.12 570.009 918.62 569.689C919.14 569.369 919.73 569.109 920.39 568.909C921.07 568.709 921.84 568.609 922.7 568.609C923.6 568.609 924.44 568.729 925.22 568.969C926 569.189 926.68 569.529 927.26 569.989C927.84 570.429 928.29 570.979 928.61 571.639C928.95 572.299 929.12 573.049 929.12 573.889C929.12 574.569 929.01 575.179 928.79 575.719C928.59 576.259 928.3 576.729 927.92 577.129C927.56 577.529 927.13 577.869 926.63 578.149C926.13 578.429 925.6 578.639 925.04 578.779V578.899C925.62 579.019 926.18 579.219 926.72 579.499C927.26 579.759 927.74 580.109 928.16 580.549C928.58 580.969 928.91 581.489 929.15 582.109C929.41 582.709 929.54 583.399 929.54 584.179C929.54 585.079 929.36 585.909 929 586.669C928.66 587.409 928.17 588.049 927.53 588.589C926.91 589.109 926.15 589.519 925.25 589.819C924.37 590.119 923.39 590.269 922.31 590.269C921.39 590.269 920.57 590.169 919.85 589.969C919.15 589.769 918.52 589.499 917.96 589.159C917.42 588.819 916.94 588.439 916.52 588.019C916.12 587.599 915.76 587.159 915.44 586.699L917.33 585.259C917.61 585.679 917.9 586.059 918.2 586.399C918.5 586.739 918.84 587.039 919.22 587.299C919.62 587.539 920.07 587.729 920.57 587.869C921.07 588.009 921.65 588.079 922.31 588.079C923.79 588.079 924.92 587.739 925.7 587.059C926.5 586.379 926.9 585.409 926.9 584.149V583.909C926.9 582.669 926.51 581.709 925.73 581.029C924.97 580.349 923.82 580.009 922.28 580.009H919.79V577.849H922.1Z" fill="#FE6D73"/>
<path d="M789.55 515.984V513.794H795.55V496.904H795.34L790.06 501.824L788.59 500.234L794.14 495.044H798.07V513.794H803.59V515.984H789.55ZM821.098 515.984H807.118V513.404L814.108 507.104C815.128 506.184 815.968 505.244 816.628 504.284C817.288 503.304 817.618 502.274 817.618 501.194V500.834C817.618 499.574 817.288 498.604 816.628 497.924C815.968 497.224 814.988 496.874 813.688 496.874C812.408 496.874 811.418 497.204 810.718 497.864C810.038 498.504 809.528 499.364 809.188 500.444L806.938 499.604C807.138 498.984 807.408 498.384 807.748 497.804C808.108 497.204 808.558 496.674 809.098 496.214C809.638 495.754 810.288 495.384 811.048 495.104C811.828 494.824 812.728 494.684 813.748 494.684C814.788 494.684 815.708 494.834 816.508 495.134C817.328 495.434 818.008 495.854 818.548 496.394C819.108 496.934 819.528 497.574 819.808 498.314C820.108 499.054 820.258 499.864 820.258 500.744C820.258 501.544 820.138 502.294 819.898 502.994C819.678 503.694 819.358 504.364 818.938 505.004C818.538 505.644 818.048 506.274 817.468 506.894C816.908 507.494 816.278 508.094 815.578 508.694L809.728 513.794H821.098V515.984ZM830.837 514.124V507.854H824.837V505.814H830.837V499.544H833.117V505.814H839.117V507.854H833.117V514.124H830.837ZM855.995 497.234H846.635L846.035 505.244H846.245C846.765 504.544 847.345 503.994 847.985 503.594C848.625 503.174 849.505 502.964 850.625 502.964C851.545 502.964 852.385 503.114 853.145 503.414C853.925 503.694 854.595 504.114 855.155 504.674C855.715 505.234 856.155 505.914 856.475 506.714C856.795 507.494 856.955 508.394 856.955 509.414C856.955 510.434 856.795 511.374 856.475 512.234C856.155 513.074 855.685 513.804 855.065 514.424C854.445 515.024 853.695 515.494 852.815 515.834C851.935 516.174 850.935 516.344 849.815 516.344C848.935 516.344 848.145 516.244 847.445 516.044C846.765 515.844 846.155 515.574 845.615 515.234C845.095 514.894 844.635 514.514 844.235 514.094C843.835 513.674 843.475 513.234 843.155 512.774L845.045 511.334C845.325 511.754 845.605 512.134 845.885 512.474C846.185 512.814 846.525 513.114 846.905 513.374C847.285 513.614 847.715 513.804 848.195 513.944C848.675 514.084 849.235 514.154 849.875 514.154C851.315 514.154 852.415 513.764 853.175 512.984C853.955 512.204 854.345 511.124 854.345 509.744V509.504C854.345 508.124 853.955 507.044 853.175 506.264C852.395 505.484 851.275 505.094 849.815 505.094C848.815 505.094 848.035 505.264 847.475 505.604C846.935 505.944 846.435 506.364 845.975 506.864L843.845 506.564L844.595 495.044H855.995V497.234Z" fill="#FE6D73"/>
<path d="M708.5 569.623C744.167 561.945 840.3 550.231 939.5 564.802" stroke="#FE6D73" stroke-width="3" stroke-dasharray="12 12"/>
<path d="M691.524 460.057C694.974 471.39 708.838 512.768 773.673 509.999" stroke="#FE6D73" stroke-width="3"/>
<path d="M943.954 460.343C940.822 471.668 928.227 513.017 868.983 510.117" stroke="#FE6D73" stroke-width="3"/>
<line x1="575.828" y1="273.293" x2="677.707" y2="375.172" stroke="#FE6D73" stroke-width="3" stroke-linecap="round" stroke-dasharray="29.79 29.79"/>
<path d="M443.185 47C437.33 47 432.938 48.5915 430.01 51.7746C425.618 56.5493 425.618 61.3239 425.618 64.507C413.907 64.507 397.805 72.4647 386.093 83.6055C374.382 94.7463 368.527 109.07 371.455 123.394C375.846 142.493 387.557 161.591 393.413 174.323C399.268 187.056 400.732 199.788 400 210.929C399.268 225.253 391.949 239.577 381.702 252.309C369.991 266.633 362.671 279.365 362.671 296.872C362.671 327.111 399.268 350.984 421.227 357.351C432.938 360.534 441.721 362.125 443.185 362.125C444.649 362.125 453.432 360.534 465.143 357.351C487.102 350.984 523.699 327.111 523.699 296.872C523.699 279.365 516.379 266.633 504.668 252.309C494.421 239.577 487.102 225.253 486.37 210.929C485.638 199.788 487.102 187.056 492.957 174.323C498.813 161.591 510.524 142.493 514.916 123.394C517.843 109.07 511.988 94.7463 500.277 83.6055C488.566 72.4647 472.463 64.507 460.752 64.507C460.752 61.3239 460.752 56.5493 456.36 51.7746C453.432 48.5915 449.041 47 443.185 47Z" stroke="#227C9D" stroke-width="2.79239" stroke-linecap="round" stroke-linejoin="round"/>
<path d="M444.165 361.78V591.674" stroke="#227C9D" stroke-width="2.79239" stroke-linecap="round" stroke-linejoin="round"/>
<path d="M377.288 602.574C407.011 590.642 481.32 590.642 511.043 602.574" stroke="#227C9D" stroke-width="2.79239" stroke-linecap="round" stroke-linejoin="round"/>
<path d="M492.759 231.5L501.497 374.238L492.756 523.5H392.5V231.5H492.759Z" fill="#FFCB77" stroke="#227C9D" stroke-width="3"/>
<path d="M413.689 234.5L414.015 235.561L443.18 330.789H443.705L472.87 235.561L473.195 234.5H493.152L493.603 235.089L493.604 235.09C493.604 235.091 493.605 235.092 493.606 235.094C493.609 235.097 493.614 235.103 493.619 235.11C493.63 235.124 493.646 235.145 493.667 235.173C493.709 235.228 493.771 235.31 493.853 235.417C494.016 235.631 494.255 235.945 494.561 236.349C495.172 237.155 496.049 238.316 497.112 239.736C499.239 242.576 502.114 246.452 505.104 250.597C508.093 254.739 511.204 259.16 513.8 263.086C516.373 266.978 518.51 270.485 519.483 272.761C523.232 281.522 523.249 284.394 524.616 295.579C525.31 301.252 528.281 357.905 531.075 413.007C532.474 440.587 533.83 467.817 534.836 488.151C535.339 498.319 535.754 506.763 536.044 512.665C536.189 515.616 536.303 517.931 536.38 519.509C536.419 520.298 536.448 520.902 536.468 521.31C536.478 521.513 536.485 521.667 536.49 521.771C536.493 521.822 536.495 521.862 536.496 521.888C536.497 521.901 536.498 521.91 536.498 521.917C536.498 521.92 536.498 521.923 536.498 521.925C536.495 521.926 536.425 521.93 535 522L536.498 521.927L536.575 523.5H488.893L488.922 521.972L491.322 395.472V359.894H490.861L445.542 515.918L444.067 520.995L442.656 515.9L399.438 359.894H398.992V400C398.992 407.099 399.763 437.569 400.535 466.304C400.921 480.662 401.306 494.576 401.596 504.899C401.74 510.061 401.861 514.326 401.945 517.3C401.988 518.787 402.02 519.952 402.043 520.744C402.054 521.14 402.063 521.443 402.069 521.647C402.072 521.75 402.075 521.827 402.076 521.879C402.077 521.905 402.077 521.924 402.077 521.938C402.077 521.944 402.078 521.949 402.078 521.952C402.078 521.954 402.078 521.955 402.078 521.956C402.078 521.957 402.047 521.958 400.578 522L402.078 521.957L402.122 523.5H354.458L354.501 521.958L356 522C354.59 521.961 354.506 521.958 354.501 521.956C354.501 521.954 354.501 521.952 354.501 521.948C354.501 521.942 354.502 521.931 354.502 521.918C354.503 521.891 354.503 521.852 354.505 521.799C354.508 521.693 354.513 521.535 354.519 521.327C354.53 520.911 354.547 520.293 354.569 519.486C354.614 517.874 354.68 515.508 354.764 512.497C354.931 506.474 355.169 497.867 355.456 487.53C356.029 466.857 356.793 439.264 357.558 411.59C359.087 356.214 360.614 300.575 360.614 299.283C360.614 296.526 361.512 286.83 364.249 279.744C366.933 272.796 369.62 267.898 370.537 266.332C370.999 265.544 375.997 257.727 380.838 250.171C383.267 246.379 385.668 242.633 387.463 239.836C388.36 238.437 389.106 237.276 389.627 236.464C389.887 236.058 390.092 235.74 390.231 235.522C390.301 235.414 390.355 235.33 390.391 235.274C390.408 235.247 390.422 235.225 390.431 235.211C390.435 235.204 390.439 235.199 390.441 235.195C390.442 235.194 390.444 235.192 390.444 235.191V235.19L390.445 235.189L390.888 234.5H413.689Z" fill="#FE6D73" stroke="#227C9D" stroke-width="3"/>
<path d="M442.72 63.9541H378.495L327.301 182.625H291L301.704 233.484H347.313L383.614 154.702L390.13 232.985L442.72 233.484V63.9541Z" fill="#FE6D73" stroke="#227C9D" stroke-width="2.79239"/>
<line x1="441.931" y1="63.9534" x2="441.931" y2="233.483" stroke="#227C9D" stroke-width="2.79239"/>
<path d="M441.74 63.9536H505.965L557.159 182.624H593.46L582.756 233.483H537.147L500.846 154.702L492.469 233.483H441.74V63.9536Z" fill="#FE6D73" stroke="#227C9D" stroke-width="2.79239"/>
<line y1="-1.39619" x2="169.529" y2="-1.39619" transform="matrix(4.7532e-08 1 1 -4.01981e-08 443.925 63.9534)" stroke="#227C9D" stroke-width="2.79239"/>
</svg>
