<svg width="675" height="462" viewBox="0 0 675 462" fill="none" xmlns="http://www.w3.org/2000/svg">
<path d="M503.408 420.01C517.879 425.213 514.945 433.906 500.786 430.247C486.628 426.588 343.284 385.81 312.881 375.585C282.478 365.359 272.452 360.296 272.452 360.296C272.452 360.296 272.463 359.335 314.714 368.426C356.965 377.518 488.937 414.807 503.408 420.01Z" fill="#FE6D73"/>
<ellipse cx="3.32711" cy="5.25674" rx="3.32711" ry="5.25674" transform="matrix(-0.248129 0.968727 -0.962888 -0.269901 508.191 423.438)" fill="#FEF9EF"/>
<path d="M20.4224 15.3448C5.63528 10.9012 3.38917 19.7658 17.0866 25.283C30.784 30.8002 171.47 83.6038 202.158 93.5157C232.845 103.428 243.874 105.314 243.874 105.314C243.874 105.314 244.382 104.522 204.49 86.5662C164.598 68.61 35.2094 19.7884 20.4224 15.3448Z" fill="#FE6D73"/>
<ellipse cx="3.30061" cy="5.30164" rx="3.30061" ry="5.30164" transform="matrix(-0.318201 0.948023 0.934884 0.354952 14.6152 15.2715)" fill="#FEF9EF"/>
<path d="M428.327 443.412C447.368 415.699 473.085 441.4 497.565 424.588C528.166 403.573 488.654 378.05 510.67 358.858C515.912 354.289 535.323 331.493 589.821 347.199C613.409 353.996 632.282 358.588 646.953 403.149C654.012 424.588 654.167 453.722 632.012 459.36C613.512 464.068 602.012 432.685 608.168 403.149C611.572 386.812 620.206 381.681 646.953 358.858C667.4 341.411 682.735 308.487 665.654 294.457C652.199 283.405 608.168 289.368 584.012 261.123C570.512 245.338 580.49 201.158 589.821 168.89C597.684 141.699 597.512 107.345 589.821 81.5919C577.485 40.2812 548.411 -10.9882 509.098 6.26752C488.13 15.4706 464.438 28.7147 461.921 51.0858C453.761 123.623 488.13 85.3204 488.13 51.0858C488.13 4.71653 447.768 3.97083 422.608 3.97083C375.436 3.97083 334.8 12.8874 318.82 43.3935C302.839 73.8996 283.534 80.0883 271.119 81.5919C245.434 84.7026 201.404 71.2545 182.008 51.0858C150.456 18.2748 96.0117 -5.10325 61.0117 3.97083C26.0117 13.0449 18.0117 28.832 18.0117 28.832C7.58478 36.741 -12.0988 88.332 18.0117 88.332C69.5117 88.332 49.5117 129.832 31.5117 117.832" stroke="#FE6D73" stroke-width="3"/>
</svg>
