<svg width="1440" height="287" viewBox="0 0 1440 287" fill="none" xmlns="http://www.w3.org/2000/svg">
<rect width="1440" height="287" fill="#227C9D"/>
<path d="M1448.68 11.6206L-30.6931 12.0808" stroke="#FFCB77" stroke-width="3.84181" stroke-linecap="round" stroke-dasharray="13.45 10.56"/>
<path d="M1448.69 38.7549L1419.09 11.6313" stroke="#FFCB77" stroke-width="3.84181" stroke-linecap="round" stroke-dasharray="10.56 8.64"/>
<path d="M1419.09 11.6314L1389.51 38.7734" stroke="#FFCB77" stroke-width="3.84181" stroke-linecap="round" stroke-dasharray="10.56 8.64"/>
<path d="M1389.51 38.7734L1359.92 11.6499" stroke="#FFCB77" stroke-width="3.84181" stroke-linecap="round" stroke-dasharray="10.56 8.64"/>
<path d="M1359.92 11.6499L1330.34 38.7919" stroke="#FFCB77" stroke-width="3.84181" stroke-linecap="round" stroke-dasharray="10.56 8.64"/>
<path d="M1330.34 38.792L1300.75 11.6684" stroke="#FFCB77" stroke-width="3.84181" stroke-linecap="round" stroke-dasharray="10.56 8.64"/>
<path d="M1300.74 11.6685L1271.17 38.8105" stroke="#FFCB77" stroke-width="3.84181" stroke-linecap="round" stroke-dasharray="10.56 8.64"/>
<path d="M1271.16 38.8105L1241.57 11.687" stroke="#FFCB77" stroke-width="3.84181" stroke-linecap="round" stroke-dasharray="10.56 8.64"/>
<path d="M1241.57 11.6866L1211.99 38.8285" stroke="#FFCB77" stroke-width="3.84181" stroke-linecap="round" stroke-dasharray="10.56 8.64"/>
<path d="M1211.99 38.8286L1182.4 11.7051" stroke="#FFCB77" stroke-width="3.84181" stroke-linecap="round" stroke-dasharray="10.56 8.64"/>
<path d="M1182.4 11.7051L1152.82 38.8471" stroke="#FFCB77" stroke-width="3.84181" stroke-linecap="round" stroke-dasharray="10.56 8.64"/>
<path d="M1152.82 38.8472L1123.22 11.7236" stroke="#FFCB77" stroke-width="3.84181" stroke-linecap="round" stroke-dasharray="10.56 8.64"/>
<path d="M1123.22 11.7237L1093.64 38.8656" stroke="#FFCB77" stroke-width="3.84181" stroke-linecap="round" stroke-dasharray="10.56 8.64"/>
<path d="M1093.64 38.8657L1064.04 11.7422" stroke="#FFCB77" stroke-width="3.84181" stroke-linecap="round" stroke-dasharray="10.56 8.64"/>
<path d="M1064.05 11.7422L1034.47 38.8842" stroke="#FFCB77" stroke-width="3.84181" stroke-linecap="round" stroke-dasharray="10.56 8.64"/>
<path d="M1034.47 38.8838L1004.87 11.7602" stroke="#FFCB77" stroke-width="3.84181" stroke-linecap="round" stroke-dasharray="10.56 8.64"/>
<path d="M1004.87 11.7603L975.29 38.9023" stroke="#FFCB77" stroke-width="3.84181" stroke-linecap="round" stroke-dasharray="10.56 8.64"/>
<path d="M975.287 38.9023L945.691 11.7788" stroke="#FFCB77" stroke-width="3.84181" stroke-linecap="round" stroke-dasharray="10.56 8.64"/>
<path d="M945.693 11.7789L916.114 38.9208" stroke="#FFCB77" stroke-width="3.84181" stroke-linecap="round" stroke-dasharray="10.56 8.64"/>
<path d="M916.116 38.9209L886.52 11.7973" stroke="#FFCB77" stroke-width="3.84181" stroke-linecap="round" stroke-dasharray="10.56 8.64"/>
<path d="M886.522 11.7974L856.943 38.9394" stroke="#FFCB77" stroke-width="3.84181" stroke-linecap="round" stroke-dasharray="10.56 8.64"/>
<path d="M856.94 38.9395L827.344 11.8159" stroke="#FFCB77" stroke-width="3.84181" stroke-linecap="round" stroke-dasharray="10.56 8.64"/>
<path d="M827.341 11.8155L797.762 38.9574" stroke="#FFCB77" stroke-width="3.84181" stroke-linecap="round" stroke-dasharray="10.56 8.64"/>
<path d="M797.764 38.9575L768.168 11.834" stroke="#FFCB77" stroke-width="3.84181" stroke-linecap="round" stroke-dasharray="10.56 8.64"/>
<path d="M768.17 11.834L738.591 38.976" stroke="#FFCB77" stroke-width="3.84181" stroke-linecap="round" stroke-dasharray="10.56 8.64"/>
<path d="M738.593 38.9761L708.997 11.8525" stroke="#FFCB77" stroke-width="3.84181" stroke-linecap="round" stroke-dasharray="10.56 8.64"/>
<path d="M708.994 11.8526L679.415 38.9946" stroke="#FFCB77" stroke-width="3.84181" stroke-linecap="round" stroke-dasharray="10.56 8.64"/>
<path d="M679.412 38.9946L649.816 11.8711" stroke="#FFCB77" stroke-width="3.84181" stroke-linecap="round" stroke-dasharray="10.56 8.64"/>
<path d="M649.818 11.8707L620.239 39.0126" stroke="#FFCB77" stroke-width="3.84181" stroke-linecap="round" stroke-dasharray="10.56 8.64"/>
<path d="M620.241 39.0127L590.645 11.8891" stroke="#FFCB77" stroke-width="3.84181" stroke-linecap="round" stroke-dasharray="10.56 8.64"/>
<path d="M590.647 11.8892L561.068 39.0312" stroke="#FFCB77" stroke-width="3.84181" stroke-linecap="round" stroke-dasharray="10.56 8.64"/>
<path d="M561.065 39.0312L531.469 11.9077" stroke="#FFCB77" stroke-width="3.84181" stroke-linecap="round" stroke-dasharray="10.56 8.64"/>
<path d="M531.466 11.9078L501.887 39.0497" stroke="#FFCB77" stroke-width="3.84181" stroke-linecap="round" stroke-dasharray="10.56 8.64"/>
<path d="M501.889 39.0498L472.293 11.9262" stroke="#FFCB77" stroke-width="3.84181" stroke-linecap="round" stroke-dasharray="10.56 8.64"/>
<path d="M472.295 11.9263L442.716 39.0683" stroke="#FFCB77" stroke-width="3.84181" stroke-linecap="round" stroke-dasharray="10.56 8.64"/>
<path d="M442.718 39.0679L413.122 11.9443" stroke="#FFCB77" stroke-width="3.84181" stroke-linecap="round" stroke-dasharray="10.56 8.64"/>
<path d="M413.119 11.9444L383.54 39.0864" stroke="#FFCB77" stroke-width="3.84181" stroke-linecap="round" stroke-dasharray="10.56 8.64"/>
<path d="M383.537 39.0864L353.941 11.9629" stroke="#FFCB77" stroke-width="3.84181" stroke-linecap="round" stroke-dasharray="10.56 8.64"/>
<path d="M353.943 11.9629L324.364 39.1049" stroke="#FFCB77" stroke-width="3.84181" stroke-linecap="round" stroke-dasharray="10.56 8.64"/>
<path d="M324.366 39.105L294.77 11.9814" stroke="#FFCB77" stroke-width="3.84181" stroke-linecap="round" stroke-dasharray="10.56 8.64"/>
<path d="M294.772 11.9815L265.193 39.1235" stroke="#FFCB77" stroke-width="3.84181" stroke-linecap="round" stroke-dasharray="10.56 8.64"/>
<path d="M265.19 39.1235L235.594 12" stroke="#FFCB77" stroke-width="3.84181" stroke-linecap="round" stroke-dasharray="10.56 8.64"/>
<path d="M235.591 11.9996L206.012 39.1415" stroke="#FFCB77" stroke-width="3.84181" stroke-linecap="round" stroke-dasharray="10.56 8.64"/>
<path d="M206.014 39.1416L176.418 12.018" stroke="#FFCB77" stroke-width="3.84181" stroke-linecap="round" stroke-dasharray="10.56 8.64"/>
<path d="M176.42 12.0181L146.841 39.1601" stroke="#FFCB77" stroke-width="3.84181" stroke-linecap="round" stroke-dasharray="10.56 8.64"/>
<path d="M146.843 39.1602L117.247 12.0366" stroke="#FFCB77" stroke-width="3.84181" stroke-linecap="round" stroke-dasharray="10.56 8.64"/>
<path d="M117.244 12.0367L87.6653 39.1786" stroke="#FFCB77" stroke-width="3.84181" stroke-linecap="round" stroke-dasharray="10.56 8.64"/>
<path d="M87.6623 39.1787L58.0663 12.0551" stroke="#FFCB77" stroke-width="3.84181" stroke-linecap="round" stroke-dasharray="10.56 8.64"/>
<path d="M58.0684 12.0547L28.4893 39.1967" stroke="#FFCB77" stroke-width="3.84181" stroke-linecap="round" stroke-dasharray="10.56 8.64"/>
<path d="M28.4914 39.1968L-1.10458 12.0732" stroke="#FFCB77" stroke-width="3.84181" stroke-linecap="round" stroke-dasharray="10.56 8.64"/>
<path d="M-1.10253 12.0733L-30.6816 39.2153" stroke="#FFCB77" stroke-width="3.84181" stroke-linecap="round" stroke-dasharray="10.56 8.64"/>
<path d="M1459.69 276.889L-19.6834 276.429" stroke="#FFCB77" stroke-width="3.84181" stroke-linecap="round" stroke-dasharray="13.45 10.56"/>
<path d="M1459.7 249.755L1430.1 276.878" stroke="#FFCB77" stroke-width="3.84181" stroke-linecap="round" stroke-dasharray="10.56 8.64"/>
<path d="M1430.1 276.878L1400.52 249.736" stroke="#FFCB77" stroke-width="3.84181" stroke-linecap="round" stroke-dasharray="10.56 8.64"/>
<path d="M1400.52 249.736L1370.93 276.86" stroke="#FFCB77" stroke-width="3.84181" stroke-linecap="round" stroke-dasharray="10.56 8.64"/>
<path d="M1370.93 276.86L1341.35 249.718" stroke="#FFCB77" stroke-width="3.84181" stroke-linecap="round" stroke-dasharray="10.56 8.64"/>
<path d="M1341.35 249.718L1311.76 276.841" stroke="#FFCB77" stroke-width="3.84181" stroke-linecap="round" stroke-dasharray="10.56 8.64"/>
<path d="M1311.75 276.841L1282.18 249.699" stroke="#FFCB77" stroke-width="3.84181" stroke-linecap="round" stroke-dasharray="10.56 8.64"/>
<path d="M1282.17 249.699L1252.58 276.823" stroke="#FFCB77" stroke-width="3.84181" stroke-linecap="round" stroke-dasharray="10.56 8.64"/>
<path d="M1252.58 276.823L1223 249.681" stroke="#FFCB77" stroke-width="3.84181" stroke-linecap="round" stroke-dasharray="10.56 8.64"/>
<path d="M1223 249.681L1193.41 276.805" stroke="#FFCB77" stroke-width="3.84181" stroke-linecap="round" stroke-dasharray="10.56 8.64"/>
<path d="M1193.41 276.805L1163.83 249.663" stroke="#FFCB77" stroke-width="3.84181" stroke-linecap="round" stroke-dasharray="10.56 8.64"/>
<path d="M1163.83 249.663L1134.23 276.786" stroke="#FFCB77" stroke-width="3.84181" stroke-linecap="round" stroke-dasharray="10.56 8.64"/>
<path d="M1134.23 276.786L1104.65 249.644" stroke="#FFCB77" stroke-width="3.84181" stroke-linecap="round" stroke-dasharray="10.56 8.64"/>
<path d="M1104.65 249.644L1075.05 276.768" stroke="#FFCB77" stroke-width="3.84181" stroke-linecap="round" stroke-dasharray="10.56 8.64"/>
<path d="M1075.06 276.768L1045.48 249.626" stroke="#FFCB77" stroke-width="3.84181" stroke-linecap="round" stroke-dasharray="10.56 8.64"/>
<path d="M1045.48 249.626L1015.88 276.75" stroke="#FFCB77" stroke-width="3.84181" stroke-linecap="round" stroke-dasharray="10.56 8.64"/>
<path d="M1015.88 276.749L986.3 249.607" stroke="#FFCB77" stroke-width="3.84181" stroke-linecap="round" stroke-dasharray="10.56 8.64"/>
<path d="M986.297 249.607L956.701 276.731" stroke="#FFCB77" stroke-width="3.84181" stroke-linecap="round" stroke-dasharray="10.56 8.64"/>
<path d="M956.703 276.731L927.124 249.589" stroke="#FFCB77" stroke-width="3.84181" stroke-linecap="round" stroke-dasharray="10.56 8.64"/>
<path d="M927.126 249.589L897.53 276.712" stroke="#FFCB77" stroke-width="3.84181" stroke-linecap="round" stroke-dasharray="10.56 8.64"/>
<path d="M897.532 276.712L867.953 249.57" stroke="#FFCB77" stroke-width="3.84181" stroke-linecap="round" stroke-dasharray="10.56 8.64"/>
<path d="M867.95 249.57L838.354 276.694" stroke="#FFCB77" stroke-width="3.84181" stroke-linecap="round" stroke-dasharray="10.56 8.64"/>
<path d="M838.351 276.694L808.772 249.552" stroke="#FFCB77" stroke-width="3.84181" stroke-linecap="round" stroke-dasharray="10.56 8.64"/>
<path d="M808.774 249.552L779.178 276.676" stroke="#FFCB77" stroke-width="3.84181" stroke-linecap="round" stroke-dasharray="10.56 8.64"/>
<path d="M779.18 276.676L749.601 249.534" stroke="#FFCB77" stroke-width="3.84181" stroke-linecap="round" stroke-dasharray="10.56 8.64"/>
<path d="M749.603 249.534L720.007 276.657" stroke="#FFCB77" stroke-width="3.84181" stroke-linecap="round" stroke-dasharray="10.56 8.64"/>
<path d="M720.004 276.657L690.425 249.515" stroke="#FFCB77" stroke-width="3.84181" stroke-linecap="round" stroke-dasharray="10.56 8.64"/>
<path d="M690.422 249.515L660.826 276.639" stroke="#FFCB77" stroke-width="3.84181" stroke-linecap="round" stroke-dasharray="10.56 8.64"/>
<path d="M660.828 276.639L631.249 249.497" stroke="#FFCB77" stroke-width="3.84181" stroke-linecap="round" stroke-dasharray="10.56 8.64"/>
<path d="M631.251 249.497L601.655 276.621" stroke="#FFCB77" stroke-width="3.84181" stroke-linecap="round" stroke-dasharray="10.56 8.64"/>
<path d="M601.657 276.621L572.078 249.479" stroke="#FFCB77" stroke-width="3.84181" stroke-linecap="round" stroke-dasharray="10.56 8.64"/>
<path d="M572.075 249.479L542.479 276.602" stroke="#FFCB77" stroke-width="3.84181" stroke-linecap="round" stroke-dasharray="10.56 8.64"/>
<path d="M542.476 276.602L512.897 249.46" stroke="#FFCB77" stroke-width="3.84181" stroke-linecap="round" stroke-dasharray="10.56 8.64"/>
<path d="M512.899 249.46L483.303 276.584" stroke="#FFCB77" stroke-width="3.84181" stroke-linecap="round" stroke-dasharray="10.56 8.64"/>
<path d="M483.305 276.583L453.726 249.441" stroke="#FFCB77" stroke-width="3.84181" stroke-linecap="round" stroke-dasharray="10.56 8.64"/>
<path d="M453.728 249.442L424.132 276.565" stroke="#FFCB77" stroke-width="3.84181" stroke-linecap="round" stroke-dasharray="10.56 8.64"/>
<path d="M424.129 276.565L394.55 249.423" stroke="#FFCB77" stroke-width="3.84181" stroke-linecap="round" stroke-dasharray="10.56 8.64"/>
<path d="M394.547 249.423L364.951 276.547" stroke="#FFCB77" stroke-width="3.84181" stroke-linecap="round" stroke-dasharray="10.56 8.64"/>
<path d="M364.953 276.547L335.374 249.405" stroke="#FFCB77" stroke-width="3.84181" stroke-linecap="round" stroke-dasharray="10.56 8.64"/>
<path d="M335.376 249.405L305.78 276.528" stroke="#FFCB77" stroke-width="3.84181" stroke-linecap="round" stroke-dasharray="10.56 8.64"/>
<path d="M305.782 276.528L276.203 249.386" stroke="#FFCB77" stroke-width="3.84181" stroke-linecap="round" stroke-dasharray="10.56 8.64"/>
<path d="M276.2 249.386L246.604 276.51" stroke="#FFCB77" stroke-width="3.84181" stroke-linecap="round" stroke-dasharray="10.56 8.64"/>
<path d="M246.601 276.51L217.022 249.368" stroke="#FFCB77" stroke-width="3.84181" stroke-linecap="round" stroke-dasharray="10.56 8.64"/>
<path d="M217.024 249.368L187.428 276.492" stroke="#FFCB77" stroke-width="3.84181" stroke-linecap="round" stroke-dasharray="10.56 8.64"/>
<path d="M187.43 276.492L157.851 249.35" stroke="#FFCB77" stroke-width="3.84181" stroke-linecap="round" stroke-dasharray="10.56 8.64"/>
<path d="M157.853 249.35L128.257 276.473" stroke="#FFCB77" stroke-width="3.84181" stroke-linecap="round" stroke-dasharray="10.56 8.64"/>
<path d="M128.254 276.473L98.6751 249.331" stroke="#FFCB77" stroke-width="3.84181" stroke-linecap="round" stroke-dasharray="10.56 8.64"/>
<path d="M98.672 249.331L69.0761 276.455" stroke="#FFCB77" stroke-width="3.84181" stroke-linecap="round" stroke-dasharray="10.56 8.64"/>
<path d="M69.0781 276.455L39.4991 249.313" stroke="#FFCB77" stroke-width="3.84181" stroke-linecap="round" stroke-dasharray="10.56 8.64"/>
<path d="M39.5011 249.313L9.90519 276.437" stroke="#FFCB77" stroke-width="3.84181" stroke-linecap="round" stroke-dasharray="10.56 8.64"/>
<path d="M9.90724 276.436L-19.6718 249.295" stroke="#FFCB77" stroke-width="3.84181" stroke-linecap="round" stroke-dasharray="10.56 8.64"/>
</svg>
